<svg preserveAspectRatio="none" width="100%" height="100%" overflow="visible" style="display: block;" viewBox="0 0 111.24 108.13" fill="none" xmlns="http://www.w3.org/2000/svg">
<g id="Layer_2">
<path id="Vector" d="M87.8115 46.9146C88.2564 46.9146 88.6306 47.2645 88.6309 47.7163C88.6309 50.8325 91.2373 53.3765 94.4473 53.3765H94.4619C94.9068 53.3767 95.2812 53.7264 95.2812 54.1782V77.5581C95.2812 80.2534 94.4894 82.0686 93.4766 83.3335C92.4667 84.5947 91.2438 85.2991 90.4053 85.7827L90.4043 85.7817C90.325 85.8308 90.2481 85.8774 90.1748 85.9204L89.9629 86.0464C89.5396 86.308 88.5113 86.8082 87.2109 87.4097C85.9061 88.0133 84.3164 88.7239 82.7646 89.4087C79.6627 90.7776 76.707 92.0441 76.4629 92.147L76.4609 92.1479C76.3595 92.1891 76.2466 92.2153 76.1309 92.2153C76.0152 92.2153 75.9023 92.1891 75.8008 92.1479L75.7979 92.146C75.5584 92.0416 72.5999 90.7741 69.4971 89.4058C67.9455 88.7215 66.3565 88.0117 65.0518 87.4087C63.7513 86.8077 62.7222 86.3081 62.2988 86.0464L62.2959 86.0444C62.1695 85.9624 62.0217 85.873 61.8594 85.7837L61.8564 85.7827C61.0179 85.2991 59.795 84.5947 58.7852 83.3335C57.7723 82.0686 56.9805 80.2534 56.9805 77.5581V54.1782C56.9805 53.7354 57.3456 53.3767 57.7998 53.3765C61.0098 53.3765 63.6162 50.8325 63.6162 47.7163C63.6164 47.2736 63.9814 46.9147 64.4355 46.9146H87.8115ZM65.2246 48.5259C64.8449 51.8914 62.0901 54.5752 58.6338 54.9429V77.5581C58.6338 79.8184 59.2716 81.304 60.0898 82.3335C60.9113 83.367 61.9229 83.952 62.6973 84.4009L62.7002 84.4028C62.8615 84.501 63.0406 84.6011 63.1826 84.6909H63.1836C63.4807 84.8747 64.1812 85.2227 65.1396 85.6724C66.0947 86.1205 67.2972 86.6656 68.5908 87.2427C71.1531 88.3857 74.0715 89.6528 76.1299 90.5347C78.1883 89.6528 81.1058 88.386 83.668 87.2427C86.2609 86.0856 88.4745 85.0627 89.0791 84.6909C89.225 84.5986 89.3913 84.4992 89.5645 84.4009L90.1826 84.0337C90.8322 83.6312 91.5557 83.1087 92.1719 82.3335C92.9901 81.304 93.6279 79.8184 93.6279 77.5581V77.4077H93.6348V54.9429C90.1855 54.5751 87.4247 51.898 87.0449 48.5259H65.2246Z" fill="var(--fill-0, #00008F)" stroke="var(--stroke-0, #00008F)" stroke-width="0.3"/>
<path id="Vector_2" d="M68.8242 54.3101C69.054 53.9214 69.5605 53.8046 69.9424 54.0259L69.9414 54.0269C70.3366 54.2515 70.4599 54.7512 70.2314 55.1304C69.0905 57.0186 67.498 58.6286 65.6162 59.8071V77.8706C65.6162 78.0359 65.6169 78.2005 65.6221 78.3325C65.6247 78.3987 65.6286 78.4539 65.6338 78.4946C65.636 78.5117 65.6377 78.5246 65.6396 78.5337C65.6462 78.5397 65.6603 78.5519 65.6855 78.5708C65.7244 78.5999 65.7771 78.6361 65.8418 78.6772L66.3135 78.9595L66.3164 78.9614C66.3616 78.9887 66.699 79.1566 67.2695 79.4321C67.8357 79.7056 68.6218 80.0798 69.5508 80.5161C71.3932 81.3814 73.7988 82.488 76.1738 83.5269C78.5494 82.4878 80.9561 81.3816 82.7998 80.5161C83.7292 80.0798 84.5158 79.7056 85.083 79.4321C85.6552 79.1562 85.9954 78.9869 86.042 78.9595L86.0771 78.939H86.0889C86.4676 78.746 86.947 78.8761 87.168 79.2427C87.3835 79.6004 87.2799 80.062 86.9482 80.3022L86.8789 80.3472C86.8204 80.3808 86.3778 80.5948 85.7012 80.9165C85.0194 81.2406 84.09 81.6786 83.0479 82.1655C80.9637 83.1394 78.4262 84.3081 76.5137 85.146L76.5098 85.1479C76.4089 85.1891 76.2967 85.2153 76.1816 85.2153C76.0665 85.2153 75.9544 85.1892 75.8535 85.1479L75.8496 85.146C73.9372 84.3081 71.3985 83.1393 69.3135 82.1655C68.2707 81.6785 67.3407 81.2397 66.6592 80.9155C66.3188 80.7536 66.0399 80.6207 65.8398 80.5239C65.6446 80.4294 65.5146 80.3654 65.4824 80.3462V80.3452C64.8436 79.9748 64.4509 79.716 64.2324 79.3579C64.0119 78.9964 63.9805 78.5549 63.9805 77.8706V59.354C63.9805 59.0658 64.1412 58.8084 64.3828 58.6646H64.3838C66.2054 57.6051 67.7446 56.1024 68.8242 54.3101Z" fill="var(--fill-0, #00008F)" stroke="var(--stroke-0, #00008F)" stroke-width="0.3"/>
<path id="Vector_3" d="M62.0879 15.9146C64.2207 15.9147 65.9501 17.6473 65.9502 19.7827V27.2095H85.8271C88.284 27.2097 90.2812 29.2104 90.2812 31.6704V43.6421C90.2812 44.0845 89.9179 44.4487 89.4756 44.4487C89.0344 44.4486 88.6709 44.0926 88.6709 43.6421V31.6704C88.6709 30.1023 87.3923 28.822 85.8271 28.8218H79.4473V43.6421C79.4473 44.0845 79.0839 44.4487 78.6416 44.4487C78.2004 44.4487 77.8369 44.0926 77.8369 43.6421V28.8218H72.9658V43.6421C72.9658 44.0845 72.6034 44.4486 72.1611 44.4487C71.7199 44.4487 71.3555 44.0926 71.3555 43.6421V28.8218H34.9131V81.603H54.6484C55.0907 81.603 55.454 81.9663 55.4541 82.4087C55.4541 82.8501 55.0988 83.2153 54.6484 83.2153H20.4346C17.9778 83.2152 15.9805 81.2144 15.9805 78.7544V31.6704C15.9805 29.2104 17.9778 27.2097 20.4346 27.2095H40.2979V19.7827C40.2979 17.6472 42.0273 15.9146 44.1602 15.9146H62.0879ZM20.4424 28.8218C18.8771 28.8218 17.5977 30.1022 17.5977 31.6704V78.8823C17.6686 80.3882 18.9146 81.595 20.4346 81.5952H26.8223V28.8218H20.4424ZM28.4326 81.5952H33.3027V28.8218H28.4326V81.5952ZM44.1738 17.5347C42.9395 17.5348 41.9288 18.5395 41.9287 19.7827V19.9331H41.9219V27.2095H64.3467V19.7827C64.3466 18.5459 63.3425 17.5347 62.1016 17.5347H44.1738Z" fill="var(--fill-0, #1A1D21)" stroke="var(--stroke-0, #1A1D21)" stroke-width="0.3"/>
</g>
</svg>
