<svg preserveAspectRatio="none" width="100%" height="100%" overflow="visible" style="display: block;" viewBox="0 0 76 69.0874" fill="none" xmlns="http://www.w3.org/2000/svg">
<g id="Icons">
<path id="Vector" d="M61.8688 15.5467C55.8474 6.92827 45.8541 1.276 34.5368 1.276C16.167 1.276 1.27249 16.1705 1.27249 34.5403C1.27249 52.9102 16.167 67.8046 34.5368 67.8046C41.2457 67.8046 47.4963 65.8187 52.7284 62.3943" stroke="var(--stroke-0, #1A1D21)" stroke-width="2.06231" stroke-miterlimit="10"/>
<path id="Vector_2" d="M10.7049 34.5383H6.31295" stroke="var(--stroke-0, #1A1D21)" stroke-width="2.06231" stroke-linejoin="round"/>
<path id="Vector_3" d="M34.5367 62.7596V58.3803" stroke="var(--stroke-0, #1A1D21)" stroke-width="2.06231" stroke-linejoin="round"/>
<path id="Vector_4" d="M34.5362 10.7049V6.31293" stroke="var(--stroke-0, #1A1D21)" stroke-width="2.06231" stroke-linejoin="round"/>
<path id="Vector_5" d="M34.5376 20.5835V34.5359L22.4438 46.6425" stroke="var(--stroke-0, #1A1D21)" stroke-width="2.06231" stroke-linecap="round" stroke-linejoin="round"/>
<path id="Vector_6" d="M74.7258 37.7472C74.7258 31.382 69.57 26.2262 63.2049 26.2262C57.5653 26.2262 52.8678 30.6818 52.8678 36.1177C52.8678 47.8168 73.771 40.255 73.771 53.0872C73.771 58.2302 68.5898 61.7693 63.2049 61.7693C56.8397 61.7693 51.6839 56.6135 51.6839 50.2483" stroke="var(--stroke-0, #00008F)" stroke-width="2.06231" stroke-linejoin="round"/>
<path id="Vector_7" d="M63.193 26.2112V20.0752" stroke="var(--stroke-0, #00008F)" stroke-width="2.06231" stroke-linejoin="round"/>
<path id="Vector_8" d="M63.193 67.702V61.7697" stroke="var(--stroke-0, #00008F)" stroke-width="2.06231" stroke-miterlimit="10"/>
</g>
</svg>
