<svg preserveAspectRatio="none" width="100%" height="100%" overflow="visible" style="display: block;" viewBox="0 0 80 84" fill="none" xmlns="http://www.w3.org/2000/svg">
<g id="Layer_2" clip-path="url(#clip0_18602_30458)">
<path id="Vector" d="M39.0107 1.84961C44.0789 1.84961 48.2493 5.76601 48.667 10.7256H67.1875C67.6356 10.7256 68.0059 11.0866 68.0059 11.5439V17.999C68.0059 18.4471 67.6449 18.8174 67.1875 18.8174H64.6006V40.6992H77.332C77.7801 40.6993 78.1504 41.0603 78.1504 41.5176V47.9727C78.1504 48.4207 77.7894 48.7909 77.332 48.791H75.2617V76.0586H77.332C77.7799 76.0587 78.1501 76.4189 78.1504 76.876V83.332C78.1504 83.7801 77.7894 84.1503 77.332 84.1504H0.667969C0.219922 84.1503 -0.150391 83.7893 -0.150391 83.332V76.876C-0.150148 76.4281 0.210792 76.0587 0.667969 76.0586H2.73828V48.791H0.667969C0.219922 48.7909 -0.150391 48.43 -0.150391 47.9727V41.5176C-0.150391 41.0695 0.210639 40.6993 0.667969 40.6992H13.4072V18.8174H10.8193C10.3713 18.8173 10.001 18.4563 10.001 17.999V11.5439C10.001 11.0959 10.362 10.7257 10.8193 10.7256H29.3545C29.7721 5.75898 33.9426 1.84963 39.0107 1.84961ZM1.49316 82.5068H76.5137V77.6943H1.49316V82.5068ZM4.38184 76.0586H24.1045V57.7822C24.1045 57.3343 24.4647 56.9641 24.9219 56.9639H53.085C53.533 56.9639 53.9033 57.3249 53.9033 57.7822V76.0586H73.6182V48.791H4.38184V76.0586ZM39.8291 76.0586H52.2666V58.5996H39.8291V76.0586ZM25.7402 76.0586H38.1787V58.5996H25.7402V76.0586ZM1.49316 47.1475H76.5137V42.335H1.49316V47.1475ZM15.043 40.7061H24.0508L33.6904 28.2549H33.6914C33.9707 27.8973 34.481 27.8244 34.8428 28.1064C35.1782 28.3681 35.2633 28.8334 35.04 29.1885L34.9912 29.2578L26.127 40.6992H33.9365L46.2197 24.8369H46.2207C46.5 24.4792 47.0103 24.4064 47.3721 24.6885C47.7076 24.9502 47.7927 25.4154 47.5693 25.7705L47.5205 25.8398L36.0195 40.6992H62.957V18.8174H45.4023C43.6935 20.3183 41.4567 21.2372 39.0039 21.2373C36.5512 21.2373 34.3143 20.3182 32.6055 18.8174H15.043V40.7061ZM39.0039 3.49316C34.5606 3.49316 30.9492 7.10281 30.9492 11.5439C30.9494 15.9849 34.5607 19.5947 39.0039 19.5947C43.447 19.5946 47.0574 15.9848 47.0576 11.5439C47.0576 7.10292 43.4471 3.49333 39.0039 3.49316ZM48.6602 12.3613C48.5074 14.1488 47.8753 15.7967 46.8877 17.1738H66.3623V12.3613H48.6602ZM11.6445 17.1738H31.1201C30.1323 15.7909 29.5006 14.1429 29.3477 12.3613H11.6445V17.1738Z" fill="var(--fill-0, #1A1D21)" stroke="var(--stroke-0, #1A1D21)" stroke-width="0.3"/>
<path id="Vector_2" d="M39 6.84961C39.4545 6.84961 39.8573 7.18239 39.8574 7.63672V10.7129H43.292C43.7477 10.7129 44.1504 11.0534 44.1504 11.5C44.1504 11.9456 43.7564 12.2871 43.292 12.2871H39.8574V15.3633C39.8573 15.8098 39.4556 16.1504 39 16.1504C38.5455 16.1504 38.1427 15.8176 38.1426 15.3633V12.2871H34.708C34.2523 12.2871 33.8496 11.9466 33.8496 11.5C33.8496 11.0544 34.2436 10.7129 34.708 10.7129H38.1426V7.63672C38.1427 7.19022 38.5444 6.84961 39 6.84961Z" fill="var(--fill-0, #00008F)" stroke="var(--stroke-0, #00008F)" stroke-width="0.3"/>
</g>
<defs>
<clipPath id="clip0_18602_30458">
<rect width="80" height="84" fill="white"/>
</clipPath>
</defs>
</svg>
