<svg preserveAspectRatio="none" width="100%" height="100%" overflow="visible" style="display: block;" viewBox="0 0 69 69" fill="none" xmlns="http://www.w3.org/2000/svg">
<g id="money-bill">
<path id="Vector" d="M60.375 28.75C55.6114 28.75 51.75 24.8884 51.75 20.125M8.625 28.75C13.3884 28.75 17.25 24.8884 17.25 20.125M60.375 40.25C55.6114 40.25 51.75 44.1114 51.75 48.875M8.625 40.25C13.3884 40.25 17.25 44.1114 17.25 48.875M14.375 20.125H54.625C57.8007 20.125 60.375 22.6994 60.375 25.875V43.125C60.375 46.3007 57.8007 48.875 54.625 48.875H14.375C11.1994 48.875 8.625 46.3007 8.625 43.125V25.875C8.625 22.6994 11.1994 20.125 14.375 20.125ZM40.25 34.5C40.25 37.6757 37.6757 40.25 34.5 40.25C31.3243 40.25 28.75 37.6757 28.75 34.5C28.75 31.3243 31.3243 28.75 34.5 28.75C37.6757 28.75 40.25 31.3243 40.25 34.5Z" stroke="var(--stroke-0, black)" stroke-width="2" stroke-linecap="round"/>
</g>
</svg>
