<svg preserveAspectRatio="none" width="100%" height="100%" overflow="visible" style="display: block;" viewBox="0 0 102.114 66" fill="none" xmlns="http://www.w3.org/2000/svg">
<g id="Icons" clip-path="url(#clip0_18419_32343)">
<path id="Vector" d="M102.114 7.72394C98.742 7.72394 98.0147 8.30579 93.9286 11.5324C91.059 13.7937 82.8206 21.0139 82.7412 21.0932C82.2123 21.556 82.0272 22.3098 82.2784 22.971C82.5297 23.6322 83.1644 24.0686 83.8653 24.0686H102.114" stroke="var(--stroke-0, #00008F)" stroke-width="1.94118" stroke-linejoin="round"/>
<path id="Vector_2" d="M60.2997 52.7228H55.7375L47.2743 47.5391L50.977 41.4826L52.868 38.6263L48.7289 36.0873L54.5209 28.8407L53.6085 26.7116L71.7648 21.1312C71.7648 21.1312 84.0365 10.7108 88.1491 7.25941C92.751 3.41129 95.8718 1.75831 100.659 1.40127C101.36 1.34837 101.32 1.32193 102.113 1.32193" stroke="var(--stroke-0, #00008F)" stroke-width="1.94118" stroke-linejoin="round"/>
<path id="Vector_3" d="M102.113 52.7223H84.2083" stroke="var(--stroke-0, #00008F)" stroke-width="1.94118" stroke-linejoin="round"/>
<path id="Vector_4" d="M72.2548 64.6784C78.8403 64.6784 84.2091 59.3095 84.2091 52.724C84.2091 46.1386 78.8403 40.7697 72.2548 40.7697C65.6694 40.7697 60.3005 46.1254 60.3005 52.724C60.3005 59.3227 65.6694 64.6784 72.2548 64.6784Z" stroke="var(--stroke-0, #00008F)" stroke-width="1.94118" stroke-linejoin="round"/>
<path id="Vector_5" d="M36.4577 3.50523L36.6293 3.18786" stroke="var(--stroke-0, #1A1D21)" stroke-width="1.94118" stroke-miterlimit="10" stroke-linecap="round"/>
<path id="Vector_6" d="M25.2048 6.54396L42.4751 15.9725" stroke="var(--stroke-0, #1A1D21)" stroke-width="1.94118" stroke-miterlimit="10" stroke-linecap="round"/>
<path id="Vector_7" d="M25.6004 6.73294C27.5575 3.16251 31.9081 1.19216 36.391 3.65179C40.8077 6.07175 40.7416 10.3695 38.7845 13.9399" stroke="var(--stroke-0, #1A1D21)" stroke-width="1.94118" stroke-miterlimit="10"/>
<path id="Vector_8" d="M38.5871 13.8843C37.5689 17.6135 33.8662 20.0334 29.9784 19.3854C25.8261 18.6846 23.0227 14.7571 23.7235 10.6048C23.9748 9.12378 24.636 7.81462 25.5749 6.76994" stroke="var(--stroke-0, #1A1D21)" stroke-width="1.94118" stroke-miterlimit="10"/>
<path id="Vector_9" d="M44.841 41.5365C45.4361 39.5397 44.603 37.8073 42.5533 37.1065C40.6358 36.4453 35.2934 34.8452 34.1297 34.5014L28.7741 25.8266C27.531 23.4331 25.6136 22.071 23.9209 21.5817C21.6597 20.9205 17.9041 21.3437 15.947 23.8694C13.2758 27.3341 8.95159 35.4403 7.85402 40.2405C6.78289 43.1498 8.02593 46.9185 14.8097 55.4611L5.15636 55.7785C2.8422 55.7785 1.29501 57.3124 1.29501 59.5869C1.29501 61.8614 2.88187 63.5144 5.15636 63.5144H21.8448C23.3788 63.5144 24.7805 62.6813 25.5078 61.3325C26.3012 59.8514 26.169 58.1059 25.045 55.6859C24.3044 54.0726 22.5589 50.0394 19.8348 43.6787L24.0796 35.2684C25.2698 36.8552 27.4649 38.9975 27.8484 39.5264C28.4435 40.3199 29.3427 40.8753 30.599 41.2455L40.5036 43.6655C41.7863 44.0225 44.193 43.6655 44.8145 41.5761L44.841 41.5365Z" stroke="var(--stroke-0, #1A1D21)" stroke-width="1.94118" stroke-linejoin="round"/>
<path id="Vector_10" d="M21.3704 40.6646L34.5281 42.9126C36.3927 43.2565 37.5696 44.9756 37.5564 47.3029L37.3183 59.6011C37.3183 61.8888 35.7183 63.5021 33.4438 63.5021C31.1693 63.5021 29.5956 61.8888 29.5956 59.5879L29.2915 50.1461L22.1771 49.0353" stroke="var(--stroke-0, #1A1D21)" stroke-width="1.94118" stroke-linejoin="round"/>
</g>
<defs>
<clipPath id="clip0_18419_32343">
<rect width="102.114" height="66" fill="white"/>
</clipPath>
</defs>
</svg>
