<svg preserveAspectRatio="none" width="100%" height="100%" overflow="visible" style="display: block;" viewBox="0 0 87 87" fill="none" xmlns="http://www.w3.org/2000/svg">
<g id="file-private">
<path id="Vector" d="M43.5 14.5H29C24.9959 14.5 21.75 17.7459 21.75 21.75V65.25C21.75 69.2542 24.9959 72.5 29 72.5H47.125M43.5 14.5H44.1221C46.0448 14.5 47.8888 15.2638 49.2485 16.6235L63.1265 30.5015C64.4862 31.8612 65.25 33.7052 65.25 35.6281V36.25M43.5 14.5V29C43.5 33.0041 46.7458 36.25 50.75 36.25H65.25M65.25 36.25V43.5M65.25 76.125C66.211 76.125 76.0674 72.1535 76.125 58.5985C76.125 58.5162 76.0808 58.439 76.0072 58.3919C71.4756 55.5908 65.7416 52.5625 65.25 52.5625C64.7584 52.5625 59.0244 55.5908 54.4928 58.3919C54.4192 58.439 54.375 58.5162 54.375 58.5985C54.4323 72.1538 64.2894 76.125 65.25 76.125Z" stroke="var(--stroke-0, black)" stroke-width="2" stroke-linecap="round"/>
</g>
</svg>
