<svg preserveAspectRatio="none" width="100%" height="100%" overflow="visible" style="display: block;" viewBox="0 0 74.9493 74.4468" fill="none" xmlns="http://www.w3.org/2000/svg">
<g id="Group">
<path id="Vector" d="M70.2531 56.4912C70.2531 56.4912 69.3274 52.0486 68.3775 46.5419C68.3234 46.2353 67.9687 45.574 67.097 45.3997C57.0576 43.3978 49.7054 43.4459 39.8644 45.4298C39.149 45.574 38.7883 46.2654 38.7282 46.59C37.7903 52.0726 36.8706 56.4852 36.8706 56.4852" stroke="var(--stroke-0, #00008F)" stroke-width="1.9491" stroke-miterlimit="10"/>
<path id="Vector_2" d="M73.6193 62.1523C73.6193 58.7257 71.0763 55.9483 67.9383 55.9483H39.1967C36.0586 55.9483 33.5157 58.7317 33.5157 62.1523C33.5157 64.3105 34.5316 66.2162 36.0646 67.3283V72.5224C36.0646 73.0514 36.4914 73.4722 37.0144 73.4722H42.3949C42.9179 73.4722 43.3507 73.0514 43.3507 72.5224V68.3563H63.7842V72.5224C63.7842 73.0514 64.2111 73.4722 64.7341 73.4722H70.1205C70.6435 73.4722 71.0703 73.0514 71.0703 72.5224V67.3283C72.6033 66.2162 73.6193 64.3165 73.6193 62.1523Z" stroke="var(--stroke-0, #00008F)" stroke-width="1.9491" stroke-linejoin="round"/>
<path id="Vector_3" d="M39.5691 62.1517H40.1221" stroke="var(--stroke-0, #00008F)" stroke-width="1.9491" stroke-miterlimit="10" stroke-linecap="round"/>
<path id="Vector_4" d="M67.0128 62.1517H67.5659" stroke="var(--stroke-0, #00008F)" stroke-width="1.9491" stroke-miterlimit="10" stroke-linecap="round"/>
<path id="Vector_5" d="M36.8763 55.5158L33.1551 54.5419" stroke="var(--stroke-0, #00008F)" stroke-width="1.9491" stroke-miterlimit="10" stroke-linecap="round"/>
<path id="Vector_6" d="M70.2533 55.5158L73.9745 54.5419" stroke="var(--stroke-0, #00008F)" stroke-width="1.9491" stroke-miterlimit="10" stroke-linecap="round"/>
<path id="Vector_7" d="M29.9206 61.4689H3.04856C1.90034 61.4689 0.974548 60.5431 0.974548 59.3949V7.37628C0.974548 6.22806 1.90034 5.30227 3.04856 5.30227H60.0328C61.181 5.30227 62.1128 6.22806 62.1128 7.37628V40.4703" stroke="var(--stroke-0, #1A1D21)" stroke-width="1.9491" stroke-miterlimit="10"/>
<path id="Vector_8" d="M12.0627 11.362L12.0627 4.26007e-08" stroke="var(--stroke-0, #1A1D21)" stroke-width="1.9491" stroke-miterlimit="10"/>
<path id="Vector_9" d="M50.882 11.362L50.882 4.26007e-08" stroke="var(--stroke-0, #1A1D21)" stroke-width="1.9491" stroke-miterlimit="10"/>
<path id="Vector_10" d="M0.974582 19.5215H62.1129" stroke="var(--stroke-0, #1A1D21)" stroke-width="1.9491" stroke-miterlimit="10"/>
<path id="Vector_11" d="M20.1697 26.7804H9.5832V37.3728H20.1697V26.7804Z" stroke="var(--stroke-0, #1A1D21)" stroke-width="1.9491" stroke-linejoin="round"/>
<path id="Vector_12" d="M36.8337 26.7804H26.2472V37.3728H36.8337V26.7804Z" stroke="var(--stroke-0, #1A1D21)" stroke-width="1.9491" stroke-linejoin="round"/>
<path id="Vector_13" d="M53.5098 26.7804H42.9173V37.3728H53.5098V26.7804Z" stroke="var(--stroke-0, #1A1D21)" stroke-width="1.9491" stroke-linejoin="round"/>
<path id="Vector_14" d="M20.1697 43.3593H9.5832V53.9458H20.1697V43.3593Z" stroke="var(--stroke-0, #1A1D21)" stroke-width="1.9491" stroke-linejoin="round"/>
<path id="Vector_15" d="M29.7039 53.9458H26.2472V43.3593H36.2806" stroke="var(--stroke-0, #1A1D21)" stroke-width="1.9491" stroke-linejoin="round"/>
</g>
</svg>
