<svg preserveAspectRatio="none" width="100%" height="100%" overflow="visible" style="display: block;" viewBox="0 0 72.4004 72.3958" fill="none" xmlns="http://www.w3.org/2000/svg">
<g id="Group">
<path id="Vector" d="M18.5973 43.2368C17.0609 43.2391 15.5434 43.5767 14.1508 44.226C12.7583 44.8753 11.5242 45.8206 10.5347 46.996C9.54522 48.1715 8.82417 49.5487 8.42187 51.0316C8.01957 52.5144 7.94571 54.0672 8.20547 55.5816C8.46522 57.096 9.05232 58.5354 9.92579 59.7994C10.7993 61.0635 11.9381 62.1217 13.2627 62.9002C14.5873 63.6787 16.0659 64.1587 17.5952 64.3068C19.1246 64.4549 20.6678 64.2675 22.1172 63.7576" stroke="var(--stroke-0, black)" stroke-width="2" stroke-linecap="round" stroke-linejoin="round"/>
<path id="Vector_2" d="M8.9721 48.8863C6.86569 47.8722 5.04494 46.3496 3.67419 44.4558C2.30343 42.562 1.42582 40.3567 1.12055 38.0389C0.815284 35.7211 1.09197 33.3638 1.92564 31.1797C2.75931 28.9955 4.12373 27.0534 5.89574 25.5285M6.00134 25.2434C4.84697 23.516 4.34102 21.4359 4.57305 19.3713C4.80508 17.3067 5.76012 15.3908 7.26911 13.9627C8.77809 12.5347 10.7437 11.6866 12.8179 11.5686C14.8922 11.4506 16.9413 12.0703 18.6024 13.3181M19.4402 13.5469C18.8787 12.3538 18.5925 11.0498 18.6027 9.73121C18.613 8.41264 18.9194 7.11324 19.4994 5.92904C20.0794 4.74484 20.9181 3.70613 21.9536 2.88969C22.989 2.07324 24.1947 1.49993 25.4815 1.21214C26.7684 0.92435 28.1034 0.929434 29.388 1.22702C30.6726 1.5246 31.8739 2.10707 32.9031 2.93138C33.9323 3.75568 34.7631 4.80075 35.334 5.98933C35.905 7.17791 36.2015 8.47961 36.2018 9.79822M36.2018 9.79822V64.3561M36.2018 9.79822C36.202 8.47961 36.4985 7.17791 37.0695 5.98933C37.6405 4.80075 38.4712 3.75568 39.5004 2.93138C40.5296 2.10707 41.7309 1.5246 43.0155 1.22702C44.3001 0.929434 45.6352 0.92435 46.922 1.21214C48.2088 1.49993 49.4145 2.07324 50.4499 2.88969C51.4854 3.70613 52.3241 4.74484 52.9041 5.92904C53.4841 7.11324 53.7905 8.41264 53.8008 9.73121C53.8111 11.0498 53.5248 12.3538 52.9633 13.5469M36.2018 64.3561C36.2018 66.2231 35.4601 68.0137 34.1399 69.3339C32.8197 70.6541 31.0291 71.3958 29.162 71.3958C27.295 71.3958 25.5044 70.6541 24.1842 69.3339C22.864 68.0137 22.1223 66.2231 22.1223 64.3561M36.2018 64.3561C36.2018 66.2231 36.9434 68.0137 38.2636 69.3339C39.5838 70.6541 41.3744 71.3958 43.2415 71.3958M36.2018 18.5979C36.2018 21.3985 37.3143 24.0843 39.2946 26.0646C41.2749 28.0449 43.9608 29.1575 46.7613 29.1575M66.5078 25.5285C68.0445 26.8487 69.2775 28.4857 70.122 30.3272C70.9665 32.1688 71.4026 34.1712 71.4004 36.1972C71.4004 38.6717 70.7633 40.9983 69.6404 43.0187M66.4022 25.2434C67.5565 23.516 68.0625 21.4359 67.8305 19.3713C67.5984 17.3067 66.6434 15.3908 65.1344 13.9627C63.6254 12.5347 61.6598 11.6866 59.5856 11.5686C57.5113 11.4506 55.4623 12.0703 53.8011 13.3181M66.1206 66.116L71.4004 71.3958M50.2812 59.0763C50.2812 61.4101 51.2083 63.6483 52.8586 65.2986C54.5088 66.9488 56.7471 67.8759 59.0809 67.8759C61.4147 67.8759 63.6529 66.9488 65.3032 65.2986C66.9534 63.6483 67.8805 61.4101 67.8805 59.0763C67.8805 56.7425 66.9534 54.5043 65.3032 52.854C63.6529 51.2037 61.4147 50.2766 59.0809 50.2766C56.7471 50.2766 54.5088 51.2037 52.8586 52.854C51.2083 54.5043 50.2812 56.7425 50.2812 59.0763Z" stroke="var(--stroke-0, black)" stroke-width="2" stroke-linecap="round" stroke-linejoin="round"/>
</g>
</svg>
