<svg preserveAspectRatio="none" width="100%" height="100%" overflow="visible" style="display: block;" viewBox="0 0 96 96" fill="none" xmlns="http://www.w3.org/2000/svg">
<g id="sustainability_blue 1">
<path id="Vector" d="M83.31 48C82.4995 46.9577 81.3096 46.2782 80 46.11C79.3462 46.0238 78.6818 46.0678 78.0451 46.2394C77.4084 46.411 76.8119 46.7069 76.29 47.11L66.93 54.41L58.63 56.05C58.8896 55.5064 59.0488 54.9203 59.1 54.32C59.1884 53.0078 58.7562 51.7136 57.897 50.7178C57.0379 49.7221 55.821 49.1049 54.51 49L49.4 48.34V35.93C49.3289 34.1921 49.8665 32.4839 50.92 31.1C52.0998 32.8244 53.7988 34.1275 55.77 34.82C57.345 35.4055 59.0097 35.7134 60.69 35.73C62.7871 35.7291 64.8436 35.1522 66.6352 34.0624C68.4269 32.9726 69.8848 31.4117 70.85 29.55C75.54 21.43 78.38 20.48 78.37 20.48C78.5821 20.4324 78.7728 20.317 78.9134 20.1512C79.0541 19.9855 79.1368 19.7785 79.1493 19.5615C79.1617 19.3445 79.1031 19.1294 78.9823 18.9487C78.8616 18.768 78.6852 18.6315 78.48 18.56C78.11 18.43 69.12 15.26 61.24 16.06C56.63 16.53 51.66 17.69 49.82 22.72C49.0429 24.8277 49.0822 27.1498 49.93 29.23C49.0813 30.1206 48.4201 31.1725 47.9855 32.3234C47.5509 33.4743 47.3518 34.7007 47.4 35.93V37.47C46.6623 36.1577 45.5662 35.0824 44.24 34.37C44.1 32.28 43.24 26.27 37.78 24.37C31.55 22.16 22.07 26.57 21.67 26.76C21.5451 26.8181 21.4335 26.9014 21.3423 27.0046C21.2511 27.1079 21.1822 27.2289 21.14 27.36C21.0987 27.4902 21.0845 27.6274 21.0982 27.7633C21.112 27.8991 21.1534 28.0308 21.22 28.15C21.42 28.51 26.22 37.15 32.38 39.32C33.3872 39.6829 34.4495 39.869 35.52 39.87C38.5413 39.7307 41.3985 38.4556 43.52 36.3C47.2 38.47 47.41 44.48 47.41 45.79V48.1L41.68 47.37C39.3272 47.0567 36.9343 47.2642 34.6706 47.9779C32.4069 48.6916 30.3277 49.894 28.58 51.5L21 58.44L20.67 58.04C20.4139 57.7406 20.1014 57.4945 19.7502 57.3159C19.3991 57.1372 19.0161 57.0295 18.6234 56.9989C18.2306 56.9682 17.8356 57.0153 17.4609 57.1373C17.0863 57.2593 16.7394 57.4539 16.44 57.71L13.02 60.61C12.4414 61.1229 12.0831 61.8394 12.02 62.61C11.9587 63.402 12.214 64.186 12.73 64.79L24.78 79C25.0674 79.3215 25.4207 79.5772 25.8159 79.7498C26.2111 79.9223 26.6389 80.0077 27.07 80C27.7694 80.015 28.4521 79.7851 29 79.35L32.42 76.45C32.999 75.9482 33.364 75.2439 33.4402 74.4815C33.5165 73.7192 33.2981 72.9565 32.83 72.35L36.03 69.65C36.7232 69.0723 37.5977 68.7573 38.5 68.76H38.57C39.32 68.82 48.42 70.55 53.99 71.63C54.468 71.7212 54.9534 71.768 55.44 71.77C56.8524 71.7626 58.2359 71.3683 59.44 70.63L71.23 63.42C71.2872 63.3854 71.3408 63.3452 71.39 63.3L83 52.4C83.5935 51.8388 83.9547 51.0752 84.0121 50.2604C84.0695 49.4456 83.819 48.6389 83.31 48ZM51.69 23.41C53.15 19.41 57.24 18.48 61.44 18.05C62.25 17.97 63.07 17.93 63.89 17.93C67.9187 18.0318 71.9164 18.6639 75.78 19.81C74.26 21.08 71.98 23.6 69.12 28.55C66.41 33.25 61.78 34.85 56.44 32.94C54.7496 32.347 53.3132 31.193 52.37 29.67C53.5632 28.758 54.8884 28.033 56.3 27.52C59.05 26.57 62.11 25.66 62.14 25.65C62.2661 25.6132 62.3837 25.552 62.4861 25.4698C62.5885 25.3876 62.6737 25.286 62.7368 25.1708C62.8 25.0557 62.8398 24.9292 62.8541 24.7987C62.8683 24.6681 62.8568 24.5361 62.82 24.41C62.7832 24.2839 62.722 24.1663 62.6398 24.0639C62.5576 23.9615 62.456 23.8763 62.3408 23.8132C62.2257 23.75 62.0992 23.7102 61.9687 23.6959C61.8381 23.6817 61.7061 23.6932 61.58 23.73C61.58 23.73 58.44 24.66 55.58 25.64C54.1331 26.1797 52.7645 26.9095 51.51 27.81C51.0951 26.3622 51.1582 24.8191 51.69 23.41ZM33 37.4C28.64 35.86 24.88 30.34 23.49 28.1C26.02 27.1 32.7 24.68 37.07 26.22C40.76 27.53 41.81 31.45 42.07 33.61L35.2 31.46C35.0733 31.4166 34.9392 31.399 34.8056 31.4083C34.672 31.4177 34.5417 31.4538 34.4223 31.5145C34.303 31.5752 34.197 31.6593 34.1107 31.7617C34.0244 31.8641 33.9596 31.9828 33.9201 32.1108C33.8806 32.2387 33.8672 32.3733 33.8806 32.5065C33.8941 32.6398 33.9342 32.7689 33.9986 32.8864C34.0629 33.0038 34.1502 33.1072 34.2552 33.1902C34.3602 33.2733 34.4809 33.3344 34.61 33.37L41.41 35.48C39.82 36.78 36.7 38.7 33 37.4ZM31.13 74.93L27.72 77.83C27.62 77.9169 27.5036 77.9831 27.3778 78.0246C27.252 78.0662 27.1191 78.0823 26.987 78.0721C26.8549 78.0618 26.7261 78.0254 26.6082 77.965C26.4902 77.9046 26.3855 77.8213 26.3 77.72L14.24 63.53C14.0685 63.3309 13.9823 63.0722 14 62.81C14.022 62.5459 14.1478 62.3013 14.35 62.13L17.76 59.23C17.9438 59.0728 18.1782 58.9876 18.42 58.99C18.5644 58.99 18.7072 59.0213 18.8384 59.0817C18.9696 59.1421 19.0861 59.2302 19.18 59.34L30.66 72.85L31.21 73.5C31.3793 73.701 31.4627 73.9606 31.4421 74.2226C31.4215 74.4846 31.2986 74.7279 31.1 74.9L31.13 74.93ZM81.6 51L70.13 61.77L58.44 68.92C57.2269 69.6658 55.7795 69.9332 54.38 69.67C49.91 68.8 39.51 66.8 38.63 66.76C37.2241 66.7308 35.8556 67.2142 34.78 68.12L31.59 70.81L22.34 60L29.93 53C31.4647 51.5929 33.2878 50.5373 35.2722 49.9069C37.2566 49.2765 39.3546 49.0865 41.42 49.35L54.31 51C54.9831 51.0665 55.6139 51.3586 56.1002 51.8287C56.5864 52.2989 56.8995 52.9195 56.9887 53.59C57.0779 54.2604 56.9378 54.9413 56.5914 55.5222C56.2449 56.1031 55.7123 56.5499 55.08 56.79H54.77C54.1063 56.8785 53.4337 56.8785 52.77 56.79L43.45 55.49C43.3187 55.4723 43.1852 55.4806 43.057 55.5145C42.9289 55.5483 42.8087 55.6071 42.7034 55.6874C42.598 55.7678 42.5094 55.8681 42.4428 55.9826C42.3761 56.0971 42.3327 56.2237 42.315 56.355C42.2973 56.4863 42.3056 56.6199 42.3395 56.748C42.3733 56.8761 42.4321 56.9963 42.5124 57.1016C42.5928 57.207 42.6931 57.2956 42.8076 57.3622C42.9221 57.4289 43.0487 57.4723 43.18 57.49L52.5 58.78C53.3163 58.89 54.1437 58.89 54.96 58.78L55.37 58.73H55.45L67.45 56.35C67.6064 56.3217 67.7538 56.2566 67.88 56.16L77.42 48.72C77.7321 48.4741 78.09 48.2927 78.4728 48.1863C78.8556 48.0798 79.2558 48.0505 79.65 48.1C80.042 48.149 80.4205 48.2749 80.7637 48.4705C81.1069 48.6662 81.4081 48.9277 81.65 49.24C81.8684 49.4841 81.985 49.8026 81.9757 50.13C81.9664 50.4574 81.8319 50.7687 81.6 51Z" fill="var(--fill-0, #1A1D21)"/>
</g>
</svg>
