<svg preserveAspectRatio="none" width="100%" height="100%" overflow="visible" style="display: block;" viewBox="0 0 58.3524 74.5" fill="none" xmlns="http://www.w3.org/2000/svg">
<g id="Group 16">
<path id="Vector" d="M29.5763 5.46283L29.6537 0.750002" stroke="var(--stroke-0, #1A1D21)" stroke-width="1.5" stroke-linecap="round" stroke-linejoin="round"/>
<path id="Vector_2" d="M21.3857 6.7113L19.7853 2.26306" stroke="var(--stroke-0, #1A1D21)" stroke-width="1.5" stroke-linecap="round" stroke-linejoin="round"/>
<path id="Vector_3" d="M14.1388 10.5808L11.0411 6.92628" stroke="var(--stroke-0, #1A1D21)" stroke-width="1.5" stroke-linecap="round" stroke-linejoin="round"/>
<path id="Vector_4" d="M8.69994 16.6L4.49229 14.1774" stroke="var(--stroke-0, #1A1D21)" stroke-width="1.5" stroke-linecap="round" stroke-linejoin="round"/>
<path id="Vector_5" d="M5.73274 24.0413L0.914168 23.1483" stroke="var(--stroke-0, #1A1D21)" stroke-width="1.5" stroke-linecap="round" stroke-linejoin="round"/>
<path id="Vector_6" d="M5.59449 32.0117L0.750105 32.7559" stroke="var(--stroke-0, #1A1D21)" stroke-width="1.5" stroke-linecap="round" stroke-linejoin="round"/>
<path id="Vector_7" d="M52.6192 32.7724L57.4378 33.6654" stroke="var(--stroke-0, #1A1D21)" stroke-width="1.5" stroke-linecap="round" stroke-linejoin="round"/>
<path id="Vector_8" d="M52.7579 24.8019L57.6023 24.0578" stroke="var(--stroke-0, #1A1D21)" stroke-width="1.5" stroke-linecap="round" stroke-linejoin="round"/>
<path id="Vector_9" d="M50.0548 17.2697L54.3399 14.9794" stroke="var(--stroke-0, #1A1D21)" stroke-width="1.5" stroke-linecap="round" stroke-linejoin="round"/>
<path id="Vector_10" d="M44.8302 11.0769L48.0397 7.52158" stroke="var(--stroke-0, #1A1D21)" stroke-width="1.5" stroke-linecap="round" stroke-linejoin="round"/>
<path id="Vector_11" d="M37.7149 6.97587L39.4703 2.57723" stroke="var(--stroke-0, #1A1D21)" stroke-width="1.5" stroke-linecap="round" stroke-linejoin="round"/>
<path id="Vector_12" d="M48.1522 28.7458C48.3329 18.2453 39.2465 9.663 28.138 10.2252C18.8622 10.6882 11.1955 17.7161 10.2834 26.5961C9.70693 32.1771 11.8925 37.2124 15.4204 41.0157C17.7006 43.4713 18.6557 48.0353 18.6041 50.9126V50.9788L38.9453 51.3095V51.2434C38.997 48.4487 40.2016 43.5457 42.3011 41.6193C45.829 38.3699 48.0576 33.8224 48.1436 28.7623L48.1522 28.7458Z" stroke="var(--stroke-0, #1A1D21)" stroke-width="1.5" stroke-linecap="round" stroke-linejoin="round"/>
<path id="Vector_13" d="M18.4083 62.2209L38.7553 62.5485L38.7454 63.1189C38.674 67.2111 35.1573 70.487 30.8901 70.4182L26.5798 70.3488C21.9942 70.275 18.3313 66.6354 18.4082 62.2292L18.4083 62.2209Z" stroke="var(--stroke-0, #1A1D21)" stroke-width="1.5" stroke-linecap="round" stroke-linejoin="round"/>
<path id="Vector_14" d="M28.3888 73.7492C30.0667 73.774 31.4434 73.2283 31.4692 71.616L31.4864 70.5825" stroke="var(--stroke-0, #1A1D21)" stroke-width="1.5" stroke-linecap="round" stroke-linejoin="round"/>
<path id="Vector_15" d="M25.4024 70.4832L25.3852 71.5085C25.3594 73.1208 26.7103 73.7161 28.3882 73.7409" stroke="var(--stroke-0, #1A1D21)" stroke-width="1.5" stroke-linecap="round" stroke-linejoin="round"/>
<path id="Vector_16" d="M38.8863 55.0798L18.545 54.6416" stroke="var(--stroke-0, #1A1D21)" stroke-width="1.5" stroke-linecap="round" stroke-linejoin="round"/>
<path id="Vector_17" d="M38.8179 58.8748L18.4767 58.4284" stroke="var(--stroke-0, #1A1D21)" stroke-width="1.5" stroke-linecap="round" stroke-linejoin="round"/>
<path id="Vector_18" d="M18.6043 50.9705L18.4064 62.2152" stroke="var(--stroke-0, #1A1D21)" stroke-width="1.5" stroke-linecap="round" stroke-linejoin="round"/>
<path id="Vector_19" d="M38.9546 51.293L38.7911 60.421" stroke="var(--stroke-0, #1A1D21)" stroke-width="1.5" stroke-linecap="round" stroke-linejoin="round"/>
<path id="Vector_20" d="M23.2173 31.8794C22.4515 30.755 22.004 29.4155 22.004 27.9769C22.004 24.0413 25.334 20.858 29.447 20.858C30.9012 20.858 32.2607 21.2549 33.4051 21.9494" stroke="var(--stroke-0, #00008F)" stroke-width="1.5" stroke-linecap="round" stroke-linejoin="round"/>
<path id="Vector_21" d="M36.728 26.4969C36.8313 26.9764 36.8915 27.4643 36.8915 27.9686C36.8915 31.9042 33.5615 35.0875 29.4485 35.0875C28.9236 35.0875 28.4074 35.0379 27.9083 34.9386" stroke="var(--stroke-0, #00008F)" stroke-width="1.5" stroke-linecap="round" stroke-linejoin="round"/>
<path id="Vector_22" d="M29.4394 32.607C32.1101 32.607 34.2752 30.534 34.2752 27.9769C34.2752 25.4197 32.1101 23.3467 29.4394 23.3467C26.7687 23.3467 24.6036 25.4197 24.6036 27.9769C24.6036 30.534 26.7687 32.607 29.4394 32.607Z" stroke="var(--stroke-0, #00008F)" stroke-width="1.5" stroke-linecap="round" stroke-linejoin="round"/>
<path id="Vector_23" d="M41.7259 29.4569V26.4969C41.7259 26.1248 41.4334 25.8189 41.0462 25.7858L39.1962 25.637C38.9553 24.711 38.5681 23.8346 38.069 23.0326L39.2736 21.6766C39.5232 21.3955 39.506 20.9738 39.2306 20.7092L37.045 18.6174C36.7697 18.3528 36.3309 18.3363 36.0383 18.576L34.6185 19.7253C33.7839 19.2458 32.8718 18.882 31.8995 18.6505L31.7446 16.8811C31.7102 16.509 31.3918 16.2279 31.0046 16.2279H27.907C27.5198 16.2279 27.2014 16.509 27.167 16.8811L27.0121 18.6505C26.0398 18.882 25.1277 19.2458 24.293 19.7253L22.8733 18.576C22.5807 18.3363 22.1419 18.3528 21.8665 18.6174L19.681 20.7092C19.4056 20.9738 19.3884 21.3872 19.638 21.6766L20.8426 23.0326C20.3435 23.8346 19.9563 24.7027 19.7154 25.637L17.8654 25.7858C17.4782 25.8189 17.1857 26.1248 17.1857 26.4969V29.4569C17.1857 29.829 17.4782 30.1349 17.8654 30.1679L19.7154 30.3168C19.9563 31.2428 20.3435 32.1192 20.8426 32.9212L19.638 34.2772C19.3884 34.5583 19.4056 34.98 19.681 35.2446L21.8665 37.3364C22.1419 37.601 22.5807 37.6175 22.8733 37.3777L24.293 36.2285C25.1277 36.708 26.0398 37.0718 27.0121 37.3033L27.167 39.0727C27.2014 39.4448 27.5198 39.7259 27.907 39.7259H31.0046C31.3918 39.7259 31.7102 39.4448 31.7446 39.0727L31.8995 37.3033C32.8718 37.0718 33.7839 36.708 34.6185 36.2285L36.0383 37.3777C36.3309 37.6175 36.7697 37.601 37.045 37.3364L39.2306 35.2446C39.506 34.98 39.5232 34.5666 39.2736 34.2772L38.069 32.9212C38.5681 32.1192 38.9553 31.2511 39.1962 30.3168L41.0462 30.1679C41.4334 30.1349 41.7259 29.829 41.7259 29.4569Z" stroke="var(--stroke-0, #00008F)" stroke-width="1.5" stroke-linecap="round" stroke-linejoin="round"/>
</g>
</svg>
