<svg preserveAspectRatio="none" width="100%" height="100%" overflow="visible" style="display: block;" viewBox="0 0 150 151.048" fill="none" xmlns="http://www.w3.org/2000/svg">
<g id="Group 13">
<path id="Vector" d="M149.999 75.9057C149.999 34.5009 116.511 0.919298 75.1429 0.764382C75.0948 0.762921 75.0481 0.764382 75 0.764382C74.9519 0.764382 74.9052 0.764382 74.8571 0.764382C33.4887 0.919298 0 34.5009 0 75.9057C0 117.311 33.4887 150.894 74.8571 151.047C74.9052 151.048 74.9519 151.047 75 151.047C75.0481 151.047 75.0948 151.047 75.1429 151.047C116.511 150.891 150 117.309 150 75.9042L149.999 75.9057Z" fill="var(--fill-0, #6574F8)"/>
<path id="Vector_2" d="M120.362 69.2852C119.814 65.3889 118.765 61.5935 117.224 57.9442C114.924 52.4959 111.632 47.6043 107.44 43.4041C103.247 39.2038 98.3641 35.9053 92.9273 33.602C89.1734 32.012 85.265 30.9436 81.2515 30.4087L75.0009 24.1449L68.7007 30.457C64.8112 31.0065 61.0238 32.0573 57.3808 33.6006C51.944 35.9053 47.0613 39.2024 42.8685 43.4026C38.6757 47.6029 35.3841 52.4944 33.0842 57.9428C31.5909 61.4795 30.5598 65.1536 29.9983 68.9242L23.3394 75.5958L29.9473 82.2163C30.4956 86.1125 31.5442 89.908 33.0857 93.5573C35.3856 99.0056 38.6771 103.897 42.87 108.097C47.0628 112.298 51.9454 115.596 57.3823 117.899C60.9115 119.396 64.5794 120.429 68.342 120.992L75.0009 127.664L81.6088 121.043C85.4983 120.494 89.2857 119.443 92.9288 117.899C98.3656 115.595 103.248 112.298 107.441 108.097C111.634 103.897 114.925 99.0056 117.225 93.5573C118.814 89.7969 119.878 85.8802 120.412 81.8597L126.663 75.5958L120.362 69.2837V69.2852ZM111.809 91.2642C109.805 96.0096 106.936 100.273 103.283 103.934C99.6286 107.595 95.3745 110.469 90.6377 112.476C85.736 114.553 80.5267 115.606 75.1541 115.606C69.7814 115.606 64.5735 114.553 59.6719 112.476C54.9351 110.469 50.681 107.595 47.0263 103.934C43.3716 100.273 40.503 96.0096 38.5007 91.2642C36.4268 86.3522 35.3753 81.1333 35.3753 75.7522C35.3753 70.3711 36.4268 65.1507 38.5007 60.2402C40.5045 55.4948 43.3731 51.2317 47.0263 47.5707C50.681 43.9098 54.9351 41.0351 59.6719 39.0285C64.5735 36.9517 69.7829 35.898 75.1541 35.898C80.5253 35.898 85.7346 36.9517 90.6377 39.0285C95.3745 41.0351 99.6286 43.9098 103.283 47.5707C106.938 51.2317 109.807 55.4948 111.809 60.2402C113.883 65.1522 114.934 70.3711 114.934 75.7522C114.934 81.1333 113.883 86.3537 111.809 91.2642Z" fill="var(--fill-0, #E2EFFF)"/>
<g id="shadows">
<path id="Vector_3" d="M91.625 118.674L107.295 133.334L104.434 124.692L95.9389 116.743C94.2384 117.625 91.6265 118.674 91.6265 118.674H91.625Z" fill="var(--fill-0, #0C0E45)"/>
<path id="Vector_4" d="M91.4098 112.393C91.1137 112.121 77.7317 99.1576 77.7317 99.1576L64.9461 86.9324L61.5437 83.6792L36.9408 16.8317C36.9408 16.8317 33.6639 13.1634 33.6463 13.1473C33.4451 13.273 33.1067 13.5069 32.9551 13.6106L60.5432 89.5952L86.705 114.132C86.7415 114.12 90.1366 113.294 91.4098 112.394V112.393Z" fill="var(--fill-0, #0C0E45)"/>
<path id="Vector_5" d="M91.4093 112.393C91.4093 112.393 89.5032 113.188 86.7046 114.13L91.6252 118.674C92.2187 118.45 92.5964 118.328 93.1827 118.079C94.2619 117.622 94.9138 117.293 95.9492 116.757L91.4108 112.393H91.4093Z" fill="var(--fill-0, #999999)"/>
</g>
<g id="Needle">
<path id="Vector_6" d="M107.425 127.788L88.4316 67.4204L82.461 71.0317C80.9326 68.5004 78.1588 66.808 74.9897 66.808C70.1712 66.808 66.2628 70.7219 66.2628 75.5491C66.2628 76.4157 66.3897 77.2517 66.623 78.0409C66.8359 78.7585 67.1378 79.4395 67.517 80.0665L61.5449 83.6778L107.424 127.788H107.425Z" fill="var(--fill-0, #E2EFFF)"/>
<path id="Vector_7" d="M88.4313 67.4204L62.9038 37.5831C62.9038 37.5831 62.8907 37.5875 62.8849 37.5904C62.6457 37.3799 58.9968 33.2235 58.8043 32.8202C58.8102 32.8172 58.816 32.8143 58.8218 32.8129L39.1643 9.83713L30.748 0L35.2165 12.1404L36.9432 16.8317L61.5461 83.6792L67.5167 80.0679C67.1375 79.4395 66.8356 78.7599 66.6227 78.0423C66.3879 77.2517 66.2625 76.4157 66.2625 75.5505C66.2625 70.7219 70.1709 66.8095 74.9894 66.8095C78.1584 66.8095 80.9323 68.5019 82.4607 71.0331L84.3507 69.8903L88.4313 67.4219V67.4204Z" fill="var(--fill-0, #FF4E56)"/>
<path id="Vector_8" d="M79.7933 73.0076C78.8133 71.3839 77.034 70.298 75.0011 70.298C72.1922 70.298 69.8661 72.3719 69.4651 75.0741C69.4242 75.3459 69.4038 75.6222 69.4038 75.9042C69.4038 76.9652 69.6984 77.9561 70.2088 78.8023C71.1889 80.4275 72.9695 81.5133 75.0025 81.5133C77.7384 81.5133 80.0135 79.5447 80.5006 76.9462C80.5633 76.6086 80.5983 76.2608 80.5983 75.9057C80.5983 74.8447 80.3037 73.8538 79.7933 73.0076Z" fill="var(--fill-0, #0C0E45)"/>
</g>
<path id="Vector_9" d="M43.5103 42.7173L45.7722 48.9095C45.7722 48.9095 46.691 47.7433 47.9218 46.71C47.8548 46.4849 45.727 40.7195 45.727 40.7195C45.727 40.7195 44.5617 41.684 43.5103 42.7158V42.7173Z" fill="var(--fill-0, #999999)"/>
</g>
</svg>
