<svg preserveAspectRatio="none" width="100%" height="100%" overflow="visible" style="display: block;" viewBox="0 0 150 151.574" fill="none" xmlns="http://www.w3.org/2000/svg">
<g id="Group">
<path id="Vector" d="M0 74.9721C0 33.5651 33.5792 0 75 0C116.421 0 150 33.5651 150 74.9721C150 116.379 116.422 149.944 75 149.944C33.5777 149.944 0 116.378 0 74.9721Z" fill="var(--fill-0, #6574F8)"/>
<path id="Vector_2" d="M66.0676 58.6758C69.2789 67.3445 54.0389 76.8837 54.7273 85.4722C54.7564 85.8309 54.7666 86.1764 54.7623 86.5118C57.0884 89.7183 57.2036 109.497 59.6303 109.354C59.9585 109.335 60.1524 109.345 60.2501 109.376C64.6909 106.203 72.203 84.0067 76.3783 79.2867C84.2827 70.3541 81.6241 82.8664 83.2517 88.562C86.0007 98.1814 92.2528 105.914 94.592 105.739C98.9584 105.414 95.9906 83.1187 98.0294 83.5109C102.841 84.4383 110.057 100.242 110.745 97.1504C111.299 94.6556 112.473 93.0968 112.842 92.6608C111.34 90.7988 99.3784 76.0642 91.4988 56.9552C85.9365 43.4658 76.5227 28.1407 75.5048 26.8327C75.4668 26.7832 75.4377 26.7132 75.3983 26.6636C75.4041 26.6753 75.4114 26.6869 75.4173 26.6986C75.4931 27.8841 61.2725 45.7318 66.0676 58.6729V58.6758Z" fill="var(--fill-0, white)"/>
<path id="Vector_3" d="M40.9055 94.6119C45.9632 91.8705 51.1667 88.9018 53.3513 86.5031C53.9011 85.8994 54.3634 85.9636 54.7616 86.5119C54.7659 86.1765 54.7543 85.8309 54.7266 85.4722C54.0397 76.8837 69.2797 67.3445 66.0669 58.6758C61.2732 45.7362 75.4924 27.887 75.4166 26.7016C75.4107 26.6884 75.4034 26.6782 75.3976 26.6666C75.3159 26.5164 75.2066 26.4172 75.0899 26.3093C74.9659 26.3093 74.9717 26.1052 74.7574 26.2904C74.7019 26.3385 74.6217 26.4333 74.5328 26.547C74.368 26.7599 74.1755 27.0384 74.0573 27.2032C72.09 29.9561 65.0154 39.0025 61.2557 45.6225C57.1314 52.8841 54.394 62.7601 49.9154 71.0453C44.8096 80.4882 40.134 88.0065 37.2144 92.5048C38.9615 91.8385 37.4594 96.4827 40.907 94.6133L40.9055 94.6119Z" fill="var(--fill-0, #E2EFFF)"/>
<path id="Vector_4" d="M125.179 110.893C121.049 103.785 114.027 94.2589 112.841 92.6623C112.815 92.6914 112.765 92.7483 112.676 92.8518C112.307 93.2878 111.298 94.657 110.744 97.1519C110.057 100.243 102.839 84.4412 98.0283 83.5124C95.9895 83.1187 98.9572 105.414 94.5909 105.74C92.2516 105.915 85.9996 98.1828 83.2505 88.5634C81.623 82.8664 84.2816 70.3555 76.3772 79.2881C72.2019 84.0067 64.6897 106.203 60.249 109.377C60.1527 109.346 59.9573 109.336 59.6292 109.355C57.2024 109.497 57.0887 89.7183 54.7611 86.5133C54.363 85.965 53.9007 85.9008 53.3509 86.5045C47.5086 99.2152 46.9048 102.661 46.1333 105.399C43.0401 116.392 47.5086 113.301 47.8513 121.545C48.5965 139.424 50.6004 129.447 50.9708 148.247C58.6958 150.454 66.8584 151.574 75.2528 151.574C97.5922 151.574 119.751 142.547 132.733 128.457L134.216 126.974C134.216 126.974 129.698 118.677 125.176 110.895L125.179 110.893Z" fill="var(--fill-0, #999999)"/>
<path id="Vector_5" d="M46.1351 105.398C46.9052 102.659 47.5104 99.2137 53.3526 86.5031C51.168 88.9017 45.9645 91.8705 40.9069 94.6118C37.4592 96.4812 38.9614 91.837 37.2142 92.5033C37.1603 92.5602 37.0217 92.7629 36.9576 92.8446C29.0532 102.807 17.0361 128.385 17.0361 128.385C17.3074 128.658 17.5801 128.926 17.8543 129.195C17.9403 129.278 18.0264 129.361 18.1124 129.444C18.3049 129.631 18.4989 129.816 18.6928 130C18.7906 130.091 18.8883 130.183 18.986 130.275C19.1814 130.457 19.3768 130.638 19.5737 130.819C19.6627 130.901 19.7502 130.982 19.8391 131.063C20.1148 131.313 20.3919 131.561 20.6704 131.808C20.6777 131.814 20.6835 131.819 20.6908 131.827C20.9767 132.079 21.264 132.327 21.5527 132.575C21.6431 132.652 21.7336 132.728 21.824 132.804C22.0282 132.976 22.2323 133.148 22.4365 133.317C22.5386 133.401 22.6421 133.486 22.7442 133.571C22.9484 133.738 23.154 133.905 23.3597 134.069C23.453 134.144 23.5463 134.219 23.6397 134.294C23.924 134.52 24.2099 134.744 24.4957 134.965C24.5089 134.975 24.522 134.985 24.5337 134.995C24.8341 135.227 25.136 135.455 25.4393 135.681C25.5326 135.751 25.626 135.819 25.7193 135.888C25.9337 136.047 26.1481 136.204 26.3639 136.359C26.4718 136.436 26.5783 136.513 26.6862 136.59C26.8991 136.744 27.1135 136.894 27.3279 137.045C27.4271 137.115 27.5248 137.184 27.624 137.252C27.9142 137.454 28.2073 137.653 28.5004 137.852C28.5209 137.865 28.5398 137.878 28.5588 137.893C28.8723 138.103 29.1873 138.31 29.5023 138.515C29.5986 138.578 29.6963 138.641 29.7926 138.702C30.0157 138.846 30.2403 138.989 30.4649 139.131C30.5772 139.201 30.6895 139.271 30.8018 139.341C31.0234 139.479 31.2466 139.615 31.4697 139.75C31.5732 139.813 31.6753 139.876 31.7803 139.938C32.0764 140.116 32.3753 140.294 32.6743 140.468C32.7006 140.484 32.7268 140.5 32.7545 140.514C33.0797 140.704 33.4064 140.891 33.7346 141.074C33.8337 141.13 33.9344 141.185 34.0335 141.24C34.2669 141.37 34.5002 141.499 34.7335 141.627C34.8502 141.69 34.9654 141.752 35.0821 141.815C35.3111 141.939 35.5415 142.06 35.7734 142.181C35.8813 142.238 35.9892 142.295 36.0971 142.35C36.399 142.506 36.7024 142.662 37.0072 142.814C37.0392 142.83 37.0728 142.847 37.1049 142.863C37.4417 143.031 37.7801 143.197 38.1199 143.361C38.222 143.41 38.3255 143.458 38.4276 143.506C38.6697 143.622 38.9103 143.735 39.1539 143.848C39.2735 143.903 39.3945 143.958 39.5141 144.014C39.7518 144.122 39.9881 144.23 40.2272 144.336C40.3395 144.386 40.4504 144.437 40.5627 144.485C40.8704 144.62 41.1796 144.755 41.4887 144.886C41.5267 144.902 41.5646 144.919 41.604 144.935C41.9511 145.083 42.3011 145.227 42.6496 145.37C42.7546 145.412 42.8596 145.455 42.9632 145.495C43.2125 145.596 43.4634 145.695 43.7142 145.793C43.8382 145.841 43.9607 145.889 44.0847 145.936C44.3282 146.029 44.5718 146.122 44.8168 146.213C44.9334 146.256 45.0486 146.3 45.1653 146.343C45.476 146.458 45.788 146.57 46.1001 146.681C46.1453 146.697 46.1906 146.713 46.2358 146.729C46.5931 146.854 46.9518 146.978 47.3106 147.099C47.4171 147.136 47.5235 147.169 47.63 147.204C47.8881 147.29 48.1462 147.375 48.4044 147.458C48.5313 147.499 48.6581 147.54 48.785 147.579C49.0344 147.658 49.2852 147.735 49.5346 147.812C49.6542 147.849 49.7738 147.885 49.8934 147.922C50.2084 148.016 50.5234 148.108 50.8384 148.2C50.8822 148.213 50.9259 148.226 50.9711 148.24C50.6007 129.44 48.5969 139.416 47.8516 121.538C47.5075 113.294 43.0405 116.385 46.1337 105.392L46.1351 105.398Z" fill="var(--fill-0, #0C0E45)"/>
<path id="Vector_6" d="M44.2226 57.0471C44.3115 56.824 44.4355 56.6023 44.5288 56.4171C44.7155 56.0497 44.9664 55.7508 45.2449 55.4504C45.4768 55.1981 45.4666 54.8948 45.6926 54.6586C46.171 54.1628 47.0956 54.1031 47.7344 54.1366C48.4883 54.1774 50.3944 54.3976 51.0988 54.6426C51.3322 54.7257 51.5743 54.7213 51.8047 54.8001C52.0818 54.8948 52.286 55.134 52.5805 55.1938C52.7862 55.236 53.1479 55.1777 53.3579 55.1369C53.5664 55.0961 53.772 55.0275 53.95 54.9123C54.2708 54.7067 54.4837 54.3597 54.5946 53.9952C54.7185 53.5883 54.8965 53.5081 55.3296 53.3944C55.7336 53.2894 56.1579 53.2996 56.5634 53.2019C57.6178 52.9497 58.4374 51.7744 58.0947 50.7435C57.7228 49.6295 56.1827 49.6615 55.4477 50.4081C55.226 50.6327 55.2129 51.1664 54.7973 51.1664C54.4429 51.1664 54.1993 50.7595 53.8931 50.6181C53.056 50.2317 52.0599 50.9549 51.1688 50.7129C50.603 50.5568 48.9681 50.0509 48.6254 49.5755C48.3148 49.1454 48.0056 48.7167 47.695 48.2865C47.536 48.0663 47.3902 47.8126 47.2079 47.6114C47.0723 47.4627 46.8827 47.3723 46.7631 47.2075C46.3883 46.6942 47.3654 46.6942 47.7869 46.859C47.9531 46.9246 48.4388 46.7278 48.5598 46.6198C48.7173 46.4784 48.7406 46.0468 48.8281 45.8266C48.9054 45.6268 48.8311 45.4767 49.0134 45.3542C49.1913 45.2346 49.7455 45.3425 49.5675 44.9342C49.534 44.8569 49.4654 44.7986 49.4334 44.7213C49.3123 44.4487 49.5573 44.2343 49.6828 44.0258C49.8767 43.705 49.9263 43.0372 50.1115 42.7164C50.2136 42.54 50.7211 42.6872 50.7342 42.4977C50.7444 42.365 50.5111 42.1083 50.4251 42.0019C50.2676 41.8065 50.1057 41.6534 49.8928 41.5149C49.5252 41.2772 49.1111 41.1299 48.7275 40.9214C48.6138 40.8602 48.5073 40.7858 48.4052 40.7071C48.1952 40.5467 47.9852 40.3629 47.8889 40.118C47.5973 39.3801 48.1004 38.654 47.4514 37.9614C47.2546 37.7529 46.9979 37.6114 46.7252 37.5283L43.4263 36.5222C43.0165 36.3968 42.6009 36.2714 42.1706 36.2612C41.0331 36.2349 39.9947 37.0661 39.5251 38.1028C39.057 39.1396 39.0731 40.3367 39.2889 41.4551C38.7668 41.0774 37.9909 41.2918 37.5432 41.7555C37.0969 42.2206 36.8986 42.8622 36.7134 43.479L33.715 53.5183C33.6333 53.7881 33.5823 54.0681 33.5896 54.3495C33.6304 56.1868 35.6342 56.4361 37.1538 56.2655C36.13 57.1448 35.7975 58.6 35.8296 59.9488C35.8602 61.2976 37.1349 65.5918 37.1801 66.9406C37.2384 68.7006 37.2676 78.6101 36.9715 79.0286C36.8782 79.1628 36.2453 79.5492 35.9448 80.5203C35.5146 81.9143 37.0576 81.8676 37.6249 82.2118C38.007 82.4436 38.2345 82.8504 38.513 83.1975C39.2364 84.1001 40.4118 84.6162 41.5625 84.5856C42.633 84.5579 43.3082 83.2602 42.5732 82.3299C42.3354 82.0295 41.9577 81.8472 41.5742 81.8472C41.3 81.8472 40.9602 81.9085 40.8085 81.6825C40.7648 81.6183 40.7473 81.5425 40.7341 81.4666C40.5591 80.4387 41.1017 78.9032 41.1746 77.8709C41.2956 76.1969 41.7521 74.4267 41.7754 72.6594C41.8104 69.7898 41.3787 66.926 41.5596 64.4836C41.5858 64.1278 41.8527 63.8172 42.1356 63.5912C42.4332 63.3521 42.8123 63.2325 43.1944 63.25C44.0636 63.2865 44.9314 63.3885 45.7845 63.5548C45.9187 63.5796 46.0616 63.6146 46.1433 63.7239C46.2512 63.8697 46.1958 64.0753 46.1345 64.2474C45.9522 64.7607 45.7699 65.2725 45.5876 65.7857C45.2828 66.6446 44.9722 67.5253 44.4515 68.2792C44.0301 68.8901 43.2251 69.4282 43.0632 70.185C42.8882 71.0103 43.6378 71.7189 44.2634 72.1345C44.6616 72.3984 45.1253 72.604 45.4768 72.9336C45.8035 73.2398 45.9566 73.6626 46.3124 73.9324C47.3421 74.7169 48.5 74.1365 49.2044 73.25C49.2919 73.1392 49.3794 73.0138 49.3707 72.8723C49.3604 72.709 49.2248 72.5792 49.079 72.5093C47.4616 71.7379 46.8914 69.6469 47.8058 68.1844C48.2535 67.4655 48.5438 66.6679 49.0381 65.9665C49.7994 64.8831 50.6351 63.7997 50.9384 62.5107C51.0915 61.8662 51.0901 61.143 50.7328 60.5845C50.2748 59.8686 49.3765 59.6003 48.5685 59.3363C47.3552 58.9383 46.1783 58.425 45.0626 57.8053C44.9066 57.7178 44.7695 57.5793 44.593 57.5866C44.4574 57.5909 44.348 57.798 44.1978 57.712C44.1205 57.6682 44.1059 57.5618 44.1132 57.4714C44.1234 57.3358 44.1672 57.19 44.224 57.0456" fill="var(--fill-0, #0C0E45)"/>
<path id="Vector_7" d="M74.5113 26.1504L56.1343 51.6592L56.7964 51.63L74.9328 26.2393L74.5113 26.1504Z" fill="var(--fill-0, #0C0E45)"/>
</g>
</svg>
