<svg preserveAspectRatio="none" width="100%" height="100%" overflow="visible" style="display: block;" viewBox="0 0 150 150.609" fill="none" xmlns="http://www.w3.org/2000/svg">
<g id="New_face_3">
<path id="Vector" d="M75 150.149C116.421 150.149 150 116.537 150 75.0752C150 33.6135 116.421 0 75 0C33.5792 0 0 33.6121 0 75.0737C0 116.535 33.5792 150.147 75 150.147" fill="var(--fill-0, #6574F8)"/>
<path id="Vector_2" d="M53.8239 106.897C48.6744 109.287 43.0669 112.463 41.0004 115.69C37.5251 126.054 36.5713 150.607 36.5713 150.607H75.2271V122.891L62.3525 126.052L53.8224 106.896L53.8239 106.897Z" fill="var(--fill-0, #FF4E56)"/>
<path id="Vector_3" d="M109.454 115.69C107.352 112.405 101.733 109.198 96.6667 106.824L88.106 126.054L75.23 122.893V150.609H113.886C113.886 150.609 112.932 126.054 109.454 115.691V115.69Z" fill="var(--fill-0, #750707)"/>
<path id="Vector_4" d="M75.1326 122.719L63.8987 102.669L63.7733 102.445L53.4946 106.157L53.8242 106.897L62.3557 126.054L66.7863 124.965L75.2288 122.891L75.1326 122.719Z" fill="var(--fill-0, #E6E6E6)"/>
<path id="Vector_5" d="M75.2285 122.891L83.8709 125.013L88.106 126.054L96.6667 106.824L96.9627 106.157L86.9378 102.445L86.8489 102.601L75.246 122.862L75.2285 122.891Z" fill="var(--fill-0, #999999)"/>
<path id="Vector_6" d="M76.0953 89.1508C76.8697 87.8323 77.2314 84.1046 75.8415 82.0181C74.65 80.228 73.7458 81.2019 74.8003 80.628C76.7107 79.5855 77.5332 75.7454 75.4944 75.065C73.9311 74.5437 74.6267 75.065 73.2369 73.6749C70.167 70.6014 75.5659 68.325 76.1551 58.8985C76.3286 56.1169 75.4609 53.5092 74.7652 51.4241C74.3759 50.2546 74.3423 47.8672 74.4342 44.8725C72.8723 45.1835 71.1878 45.2522 69.3576 45.0551C59.8781 44.03 53.5721 50.1815 53.5721 56.8266V61.883C51.2562 60.5703 48.5553 58.2765 46.6565 55.3256C46.6565 55.3329 46.6565 55.3402 46.6565 55.346C46.4786 55.346 46.2992 55.3591 46.1198 55.384C44.0868 55.6614 42.4476 57.3873 41.6119 59.7892C41.1001 61.2624 40.8886 62.9883 41.0753 64.7915C41.5653 69.5355 44.6206 73.0193 47.8976 72.5711C48.1251 72.5404 48.3467 72.4893 48.5626 72.4222C50.7297 79.8586 54.1365 84.0243 55.729 86.0568C56.8228 87.4527 60.1217 90.37 63.9003 92.9909C67.8234 95.7126 72.2598 98.113 75.2844 98.1612C75.2392 98.0678 73.2719 93.9561 76.0967 89.1508H76.0953Z" fill="var(--fill-0, #B17F44)"/>
<path id="Vector_7" d="M108.851 59.0576C107.956 57.0427 106.452 55.6322 104.635 55.3839C104.476 55.3839 104.314 55.3693 104.154 55.346C104.104 55.346 104.056 55.346 104.006 55.346C104.006 55.3387 104.006 55.3299 104.006 55.3226C98.0634 54.2275 90.7963 38.8145 88.0122 32.406C87.9189 32.6031 87.8241 32.8002 87.722 32.9988C84.1767 39.4044 80.121 43.7424 74.4362 44.8725C74.3458 47.8672 74.3779 50.2545 74.7673 51.4241C75.4614 53.5106 76.3306 56.1169 76.1571 58.8985C75.5679 68.325 70.169 70.6014 73.2389 73.6749C74.6287 75.065 73.9331 74.5437 75.4964 75.065C77.5338 75.7454 76.7127 79.584 74.8022 80.628C73.7493 81.2033 74.652 80.2294 75.8435 82.0181C77.2334 84.1046 76.8717 87.8323 76.0973 89.1508C73.271 93.956 75.2398 98.0678 75.285 98.1612C72.2618 98.113 67.8239 95.7126 63.9009 92.9909V102.667L75.1348 122.718L75.231 122.89L75.2485 122.861L86.8514 102.6V92.931C90.5936 90.3262 93.8516 87.4424 94.9366 86.0568C96.5306 84.0214 99.9432 79.8498 102.109 72.3959C102.351 72.4747 102.599 72.536 102.856 72.5711C106.133 73.0193 109.189 69.5355 109.681 64.7915C109.898 62.6802 109.571 60.674 108.854 59.0576H108.851Z" fill="var(--fill-0, #925F32)"/>
<path id="Vector_8" d="M75.1463 83.0621C80.6488 83.2359 83.2403 79.6556 83.2403 79.6556H67.5103C67.5103 79.6556 69.6453 82.8884 75.1463 83.0621Z" fill="var(--fill-0, #E6E6E6)"/>
<path id="Vector_9" d="M68.8292 60.1294C68.8292 60.1294 68.7752 60.6944 68.1758 60.1659C67.3868 59.4679 66.9362 59.0971 65.9868 58.7495C65.7914 58.9189 66.5687 60.6112 65.806 60.7163C65.4501 60.766 64.9718 60.582 64.5634 60.5835C63.3821 60.5864 62.2198 60.7192 61.0444 60.7528C61.0239 60.2389 61.0619 59.8797 61.1523 59.3774C61.1712 59.2752 61.476 58.6138 61.0166 58.7306C60.1883 58.9423 58.1874 60.5134 57.3926 60.2608V60.0447C57.4232 60.0257 57.5472 59.6621 57.8345 59.4869C59.8602 58.2473 60.811 57.104 63.3865 57.0821C65.7345 57.0616 66.8152 57.6924 68.4704 59.3774C68.7898 59.703 68.7738 60.0637 68.8292 60.1308V60.1294Z" fill="var(--fill-0, #0C0E45)"/>
<path id="Vector_10" d="M94.3173 59.9132C94.7781 60.1965 95.4388 60.3863 95.6882 60.8127C95.2346 61.0244 94.9356 60.9689 94.3508 60.8331C93.5546 60.6477 91.6105 59.0182 90.508 59.0094C90.3549 59.1087 91.4968 60.9134 90.7545 61.2478C90.4045 61.4055 89.1503 61.039 88.6223 61.0185C88.1309 60.9981 86.1402 61.1251 85.9316 60.9543C85.6166 60.3104 86.0191 59.8855 86.1475 59.3394C86.2773 58.7816 85.2229 59.2416 85.026 59.3642C84.5972 59.63 84.183 60.433 83.7032 60.5703C83.3838 60.6623 83.2453 60.4038 83.1738 60.398C83.7893 58.421 85.8835 57.4646 87.8742 57.4412C90.9061 57.4062 91.8833 58.4166 94.3188 59.9132H94.3173Z" fill="var(--fill-0, #0C0E45)"/>
<path id="Vector_11" d="M75.3768 8.81182C56.4339 8.81182 41.0845 24.1825 41.0845 43.1393C41.0845 45.1952 41.2653 47.2102 41.6109 49.1667V59.7906C42.4466 57.3887 44.0858 55.6628 46.1188 55.3854C46.2982 55.3606 46.4776 55.3489 46.6555 55.3474C46.6555 55.3401 46.6555 55.3328 46.6555 55.327C48.5543 58.2779 51.2552 60.5717 53.5711 61.8844V56.828C53.5711 50.1844 59.8786 44.0315 69.3566 45.0565C71.1869 45.2536 72.8713 45.185 74.4332 44.874C80.118 43.7438 84.1737 39.4058 87.719 33.0002C87.8197 32.8017 87.9159 32.6045 88.0092 32.4074C90.7933 38.8159 98.0589 54.2275 104.003 55.3241C104.053 55.3328 104.102 55.3416 104.152 55.3489C104.314 55.3723 104.474 55.3854 104.633 55.3868C106.452 55.6351 107.955 57.0456 108.849 59.0605V51.5438C108.94 51.0284 108.991 50.4735 109.006 49.8851C109.439 47.7051 109.668 45.4507 109.668 43.1423C109.668 24.1855 94.3153 8.81474 75.3753 8.81474L75.3768 8.81182Z" fill="var(--fill-0, #0C0E45)"/>
</g>
</svg>
