<svg preserveAspectRatio="none" width="100%" height="100%" overflow="visible" style="display: block;" viewBox="0 0 150 141.321" fill="none" xmlns="http://www.w3.org/2000/svg">
<g id="Globe">
<path id="Vector" d="M8.584 70.6852C8.584 31.6732 40.216 0.0494385 79.235 0.0494385C118.254 0.0494385 149.886 31.6732 149.886 70.6852C149.886 109.697 118.254 141.321 79.235 141.321C40.216 141.321 8.584 109.696 8.584 70.6852Z" fill="var(--fill-0, #6574F8)"/>
<path id="Vector_2" d="M149.915 67.2823C149.824 65.3686 149.64 63.4796 149.4 61.6099C148.964 58.2234 148.291 54.9125 147.393 51.6923H135.164C132.418 51.6923 130.192 53.9124 130.192 56.6504C130.192 58.0064 130.741 59.2332 131.624 60.1275H126.423C123.675 60.1275 121.451 62.3476 121.451 65.0856C121.451 65.8783 121.654 66.616 121.985 67.2809H106.166C98.9217 67.2809 93.0514 73.1402 93.0514 80.3665C93.0514 87.5927 98.9217 93.4547 106.166 93.4547H146.219C148.658 86.3082 150 78.6547 150 70.6839C150 69.5422 149.967 68.4088 149.913 67.2809L149.915 67.2823Z" fill="var(--fill-0, #E2EFFF)"/>
<path id="Vector_3" d="M127.913 102.426C126.257 101.677 124.421 101.25 122.483 101.254C115.241 101.269 111.334 113.834 105.681 116.053C91.7052 121.535 109.441 134.569 109.441 134.569C124.866 127.289 137.225 114.609 144.08 98.9706C142.285 98.0556 140.256 97.5322 138.1 97.5363C133.979 97.5459 130.311 99.4542 127.913 102.426Z" fill="var(--fill-0, #E2EFFF)"/>
<path id="Vector_4" d="M107.565 18.2922C107.565 23.6995 111.953 28.0875 117.375 28.0875H135.68C129.829 20.3749 122.426 13.9084 113.938 9.13028C110.217 10.5219 107.565 14.0939 107.565 18.2908" fill="var(--fill-0, #E2EFFF)"/>
<path id="Vector_5" d="M45.6777 63.9934C51.0933 63.9934 55.4908 59.6096 55.4908 54.2009C55.4908 52.5468 55.076 50.9917 54.3506 49.6261C55.076 48.2592 55.4908 46.704 55.4908 45.05C55.4908 40.8159 52.7899 37.2192 49.0202 35.855C49.2414 35.3797 49.3733 34.8563 49.3733 34.2985C49.3733 32.2447 47.7013 30.581 45.6461 30.581H32.9054C30.8461 30.581 29.1782 32.2461 29.1782 34.2985C29.1782 34.6337 29.2373 34.9511 29.3197 35.2602H18.0215C13.1115 43.6954 9.88444 53.2296 8.84034 63.4137C9.87345 63.7832 10.9821 63.9948 12.1444 63.9948H45.6805L45.6777 63.9934Z" fill="var(--fill-0, #E2EFFF)"/>
<path id="Vector_6" d="M99.5704 60.8652L103.089 60.6207C103.782 62.1332 105.316 63.1828 107.092 63.1622C108.977 63.1416 110.551 61.9189 111.138 60.2401C111.354 60.3596 111.599 60.4462 111.878 60.4421C112.622 60.4338 113.218 59.9186 113.211 59.2908L113.167 55.4098C113.16 54.782 112.551 54.2819 111.808 54.2901C111.643 54.2915 111.49 54.3272 111.344 54.3739L111.226 43.9179C111.197 41.5192 109.228 39.5973 106.824 39.6247C104.419 39.6522 102.492 41.6181 102.521 44.0168L102.584 49.5491C102.319 49.3884 102.01 49.2936 101.676 49.2963C100.728 49.306 99.9674 50.0822 99.9784 51.0287L100.044 56.8853C100.05 57.3826 100.272 57.825 100.616 58.1341L99.3849 58.2192C98.654 58.2701 98.1017 58.9034 98.154 59.6315C98.2048 60.3638 98.8381 60.9133 99.5704 60.8624" fill="var(--fill-0, #E2EFFF)"/>
<path id="Vector_7" d="M72.2142 2.5072H84.9549C86.3589 2.5072 87.5679 1.72276 88.2039 0.578374C85.2805 0.211566 82.3075 0 79.2838 0C75.8094 0 72.3955 0.261023 69.0558 0.744604C69.7138 1.79969 70.8761 2.5072 72.2142 2.5072Z" fill="var(--fill-0, #E2EFFF)"/>
<path id="Vector_8" d="M32.8809 91.3034C33.8412 89.7894 34.4058 88.0007 34.4058 86.076C34.4058 80.6687 30.011 76.2849 24.5941 76.2849H14.8276C16.3677 75.8288 17.4997 74.422 17.4997 72.7363C17.4997 70.6825 15.8305 69.0188 13.7739 69.0188H8.51086C8.4985 69.5738 8.46827 70.1261 8.46827 70.6853C8.46827 94.2653 20.055 115.132 37.8431 127.962C37.8431 127.962 43.9497 117.834 43.9497 108.163C43.9497 98.4911 35.9115 93.8188 32.8809 91.3034Z" fill="var(--fill-0, #E2EFFF)"/>
<path id="Vector_9" d="M107.565 16.6313C107.363 17.9612 107.366 19.2045 107.81 20.7583C113.14 16.1725 118.968 14.436 120.952 13.6928C120.122 13.0017 118.87 12.1568 117.665 11.3944C115.765 12.0758 113.124 13.2957 109.501 15.4416C109.453 15.4691 108.752 15.8634 107.565 16.6313Z" fill="var(--fill-0, #999999)"/>
<path id="Vector_10" d="M68.5853 46.7329L67.4093 46.3317L71.3054 66.0857L86.4998 52.8422L81.914 51.2788L71.3054 60.5245L68.5853 46.7329Z" fill="var(--fill-0, #0C0E45)"/>
<path id="Vector_11" d="M107.564 16.6313C107.086 16.9418 106.528 17.3127 105.902 17.7441C101.367 20.8764 93.249 27.2316 85.6807 37.0022C83.5953 39.6935 81.7804 42.4246 80.2486 45.1489L83.0966 46.1201C83.9057 44.9291 84.7671 43.7421 85.6807 42.5634C94.6682 30.9602 103.342 24.0156 106.528 21.6622C107.313 21.0825 107.766 20.7802 107.807 20.7569C107.364 19.2045 107.361 17.9598 107.563 16.63L107.564 16.6313Z" fill="var(--fill-0, #0C0E45)"/>
<path id="Vector_12" d="M126.365 5.46641C122.542 2.37671 116.09 3.7148 106.147 9.60569C105.593 9.90931 92.4456 17.2674 80.3478 32.8849C77.7829 36.193 75.5972 39.5685 73.7838 42.9453L67.4093 40.7706L68.5853 46.7329L71.3054 60.5246L81.914 51.2775L86.4998 47.281L83.0968 46.1202L80.2489 45.1489C81.7807 42.4246 83.5955 39.6935 85.681 37.0022C93.2493 27.2317 101.367 20.8764 105.902 17.7441C106.529 17.3114 107.085 16.9405 107.564 16.6314C108.75 15.8634 109.451 15.4691 109.5 15.4416C113.123 13.2957 115.765 12.0772 117.665 11.3944C121.077 10.1703 122.097 10.68 122.103 10.68C122.428 11.0894 122.653 11.9247 122.132 13.4991L125.054 15.6477L127.957 18.1164C128.221 17.3347 130.719 8.99023 126.365 5.46503V5.46641Z" fill="var(--fill-0, #FF4E56)"/>
<path id="Vector_13" d="M18.2066 106.682C19.0102 107.903 19.9087 109.262 20.902 110.674C25.1663 109.306 33.2127 106.219 41.9817 100.259C41.1451 99.0242 40.395 97.9018 39.6559 97.0047C29.2836 103.574 20.3552 106.128 18.2066 106.682Z" fill="var(--fill-0, #999999)"/>
<path id="Vector_14" d="M57.1971 77.9953L55.1309 94.1677L49.3458 89.7743C47.7851 91.1673 46.1118 92.5233 44.3341 93.8202C42.7542 94.9742 41.1895 96.032 39.6563 97.0033C40.3968 97.9018 41.1455 99.0228 41.9822 100.258C41.9959 100.248 42.0096 100.239 42.0234 100.23C42.1992 100.111 42.3751 99.9899 42.5523 99.8677C42.5811 99.8471 42.6114 99.8265 42.6402 99.8059C42.7886 99.7028 42.937 99.5998 43.0853 99.4954C43.1417 99.4555 43.1966 99.4171 43.2529 99.3772C43.3821 99.2865 43.5098 99.1945 43.639 99.1025C43.6926 99.064 43.7461 99.0255 43.7997 98.9871C43.9783 98.8593 44.1555 98.7302 44.3341 98.601C46.1118 97.3041 47.7851 95.9482 49.3458 94.5552L55.1309 98.9486L57.8428 77.7246L57.1971 77.9939V77.9953Z" fill="var(--fill-0, #0C0E45)"/>
<path id="Vector_15" d="M42.1309 84.2955L38.0699 85.9936L40.4466 87.7988C41.5195 87.0047 42.5458 86.1873 43.5253 85.3561L42.1295 84.2969L42.1309 84.2955Z" fill="var(--fill-0, #0C0E45)"/>
<path id="Vector_16" d="M38.069 81.2127L42.13 84.2956L43.5258 85.3548C42.5463 86.1859 41.5186 87.0033 40.4471 87.7974C40.333 87.8812 40.219 87.9664 40.105 88.0502C27.7393 97.0789 16.1402 99.8278 16.0207 99.8526C10.0996 101.384 7.75998 101.427 7.32723 100.777C6.07432 99.5517 9.95396 95.7518 11.3374 93.9424L9.31102 87.2232C7.3918 88.891 -3.74843 97.2602 1.3017 104.8C4.49718 109.576 12.2015 108.23 17.7256 106.799C17.7682 106.789 17.9331 106.75 18.2078 106.679C20.3565 106.125 29.2835 103.571 39.6571 97.0019C41.1903 96.0306 42.7551 94.9728 44.335 93.8188C46.1127 92.5219 47.786 91.166 49.3466 89.7729L55.1317 94.1664L57.1979 77.9939L57.8436 72.9424L38.0704 81.2114L38.069 81.2127Z" fill="var(--fill-0, #FF4E56)"/>
<path id="Vector_17" d="M113.609 107.461C114.621 106.183 115.122 105.008 115.788 104.059C125.053 111.774 129.718 119.263 129.77 119.354C129.89 119.536 130.004 119.715 130.117 119.89C129.334 120.685 128.538 121.408 127.952 121.898C127.952 121.898 120.516 112.725 113.608 107.461" fill="var(--fill-0, #999999)"/>
<path id="Vector_18" d="M111.072 91.8749L111.948 89.3004L110.069 89.674L109.611 91.019C110.099 91.2965 110.586 91.5823 111.073 91.8763L111.072 91.8749Z" fill="var(--fill-0, #999999)"/>
<path id="Vector_19" d="M115.789 104.059C114.283 102.805 112.657 101.545 110.909 100.311C109.699 99.4555 108.48 98.6628 107.262 97.9306L105.058 104.408L94.7779 92.7101L90.923 93.4753L105.059 109.56L107.263 103.082C108.482 103.816 109.7 104.607 110.911 105.463C111.166 105.645 111.419 105.826 111.67 106.007C111.718 106.042 111.765 106.076 111.812 106.11C112.026 106.267 112.239 106.423 112.451 106.58C112.474 106.598 112.497 106.614 112.521 106.632C112.89 106.908 113.256 107.185 113.613 107.461C114.625 106.183 115.125 105.008 115.792 104.059H115.789Z" fill="var(--fill-0, #0C0E45)"/>
<path id="Vector_20" d="M135.831 115.533C135.603 115.165 128.829 104.209 115.048 94.4755C113.732 93.5454 112.404 92.6799 111.072 91.8762C110.586 91.5822 110.098 91.2965 109.611 91.019L110.068 89.674L111.948 84.1486L90.9186 88.3236L94.7735 92.7101L105.054 104.408L107.257 97.9306C108.476 98.6642 109.694 99.4555 110.905 100.311C112.654 101.546 114.28 102.806 115.785 104.059C125.05 111.774 129.715 119.263 129.767 119.354C129.887 119.537 130.001 119.715 130.113 119.89C133.155 124.624 133.869 126.691 133.406 127.285C132.64 128.861 127.797 126.396 125.638 125.661L119.987 129.984C122.372 130.799 133.58 138.881 139.142 131.707C142.666 127.167 138.94 120.304 135.824 115.532L135.831 115.533Z" fill="var(--fill-0, #FF4E56)"/>
</g>
</svg>
