<svg preserveAspectRatio="none" width="100%" height="100%" overflow="visible" style="display: block;" viewBox="0 0 19.25 19.25" fill="none" xmlns="http://www.w3.org/2000/svg">
<g id="vital_signs">
<path id="Vector" d="M1.25693 8.125H0.74944C0.6676 8.6128 0.625 9.1139 0.625 9.625C0.625 10.1361 0.6676 10.6372 0.74944 11.125H1.25693M1.25693 8.125H4.8539M1.25693 8.125C1.87871 4.6329 4.6329 1.8787 8.125 1.25693M1.25693 11.125H4.8539M1.25693 11.125C1.8787 14.6171 4.6329 17.3713 8.125 17.9931M4.8539 8.125H5.38106C5.21523 8.5942 5.125 9.099 5.125 9.625C5.125 10.151 5.21523 10.6558 5.38106 11.125H4.8539M4.8539 8.125C5.34231 6.56997 6.56997 5.34231 8.125 4.8539M8.125 1.25693V4.8539M8.125 1.25693V0.74944C8.6128 0.6676 9.1139 0.625 9.625 0.625C10.1361 0.625 10.6372 0.6676 11.125 0.74944V1.25693M4.8539 11.125C5.34231 12.68 6.56997 13.9077 8.125 14.3961M8.125 17.9931V14.3961M8.125 17.9931V18.5006C8.6128 18.5824 9.1139 18.625 9.625 18.625C10.1361 18.625 10.6372 18.5824 11.125 18.5006V17.9931M8.125 14.3961V13.8689C8.5942 14.0348 9.099 14.125 9.625 14.125C10.151 14.125 10.6558 14.0348 11.125 13.8689V14.3961M8.125 4.8539V5.38106C8.5942 5.21523 9.099 5.125 9.625 5.125C10.151 5.125 10.6558 5.21523 11.125 5.38106V4.8539M11.125 4.8539V1.25693M11.125 4.8539C12.68 5.34231 13.9077 6.56997 14.3961 8.125M11.125 1.25693C14.6171 1.87871 17.3713 4.6329 17.9931 8.125M14.3961 8.125H13.8689C14.0348 8.5942 14.125 9.099 14.125 9.625C14.125 10.151 14.0348 10.6558 13.8689 11.125H14.3961M14.3961 8.125H17.9931M17.9931 8.125H18.5006C18.5824 8.6128 18.625 9.1139 18.625 9.625C18.625 10.1361 18.5824 10.6372 18.5006 11.125H17.9931M14.3961 11.125H17.9931M14.3961 11.125C13.9077 12.68 12.68 13.9077 11.125 14.3961M17.9931 11.125C17.3713 14.6171 14.6171 17.3713 11.125 17.9931M11.125 14.3961V17.9931" stroke="var(--stroke-0, #00008F)" stroke-width="1.25" stroke-linecap="round"/>
</g>
</svg>
