<svg preserveAspectRatio="none" width="100%" height="100%" overflow="visible" style="display: block;" viewBox="0 0 24 24" fill="none" xmlns="http://www.w3.org/2000/svg">
<g id="vital_signs">
<mask id="mask0_17813_54632" style="mask-type:alpha" maskUnits="userSpaceOnUse" x="0" y="0" width="24" height="24">
<rect id="Bounding box" width="24" height="24" fill="var(--fill-0, #D9D9D9)"/>
</mask>
<g mask="url(#mask0_17813_54632)">
<path id="Vector" d="M12.4219 22.3903C17.9447 22.3903 22.4219 17.9131 22.4219 12.3903C22.4219 6.86741 17.9447 2.39026 12.4219 2.39026C6.89903 2.39026 2.42188 6.86741 2.42188 12.3903C2.42188 17.9131 6.89903 22.3903 12.4219 22.3903Z" stroke="var(--stroke-0, #00008F)" stroke-width="1.5" stroke-linecap="round" stroke-linejoin="round"/>
<path id="Vector_2" d="M2.42188 12.3903H22.4219" stroke="var(--stroke-0, #00008F)" stroke-width="1.5" stroke-linecap="round" stroke-linejoin="round"/>
<path id="Vector_3" d="M12.4219 2.39026C14.9232 5.12861 16.3446 8.68229 16.4219 12.3903C16.3446 16.0982 14.9232 19.6519 12.4219 22.3903C9.92059 19.6519 8.49912 16.0982 8.42188 12.3903C8.49912 8.68229 9.92059 5.12861 12.4219 2.39026Z" stroke="var(--stroke-0, #00008F)" stroke-width="1.5" stroke-linecap="round" stroke-linejoin="round"/>
</g>
</g>
</svg>
