<svg preserveAspectRatio="none" width="100%" height="100%" overflow="visible" style="display: block;" viewBox="0 0 17.3333 15.1667" fill="none" xmlns="http://www.w3.org/2000/svg">
<path id="directions_car" d="M1.33331 13V14.625C1.33331 14.7785 1.2814 14.9071 1.17758 15.0109C1.07376 15.1148 0.945118 15.1667 0.791646 15.1667H0.541667C0.388194 15.1667 0.259549 15.1148 0.155729 15.0109C0.0519097 14.9071 0 14.7785 0 14.625V6.66656L2.14988 0.541667C2.20278 0.369417 2.30452 0.236076 2.4551 0.141645C2.60587 0.0472147 2.7736 0 2.95831 0H14.4584C14.6224 0 14.7713 0.0496528 14.905 0.148958C15.0388 0.248264 15.1316 0.379167 15.1835 0.541667L17.3333 6.66656V14.625C17.3333 14.7785 17.2814 14.9071 17.1776 15.0109C17.0738 15.1148 16.9451 15.1667 16.7917 15.1667H16.5417C16.3882 15.1667 16.2596 15.1148 16.1558 15.0109C16.0519 14.9071 16 14.7785 16 14.625V13H1.33331ZM1.53346 5.58323H15.7999L14.2041 1.08333H3.12921L1.53346 5.58323ZM3.71313 10.4999C4.05022 10.4999 4.33505 10.382 4.5676 10.1462C4.80034 9.91024 4.91671 9.62379 4.91671 9.28688C4.91671 8.94978 4.79872 8.66495 4.56273 8.4324C4.32692 8.19966 4.04047 8.08329 3.70337 8.08329C3.36646 8.08329 3.08163 8.20128 2.8489 8.43727C2.61634 8.67308 2.50006 8.95953 2.50006 9.29663C2.50006 9.63354 2.61797 9.91837 2.85377 10.1511C3.08976 10.3837 3.37621 10.4999 3.71313 10.4999ZM13.63 10.4999C13.9669 10.4999 14.2517 10.382 14.4844 10.1462C14.717 9.91024 14.8333 9.62379 14.8333 9.28688C14.8333 8.94978 14.7154 8.66495 14.4796 8.4324C14.2436 8.19966 13.9571 8.08329 13.6202 8.08329C13.2831 8.08329 12.9983 8.20128 12.7657 8.43727C12.533 8.67308 12.4166 8.95953 12.4166 9.29663C12.4166 9.63354 12.5346 9.91837 12.7706 10.1511C13.0064 10.3837 13.2929 10.4999 13.63 10.4999ZM1.08333 11.9167H16.25V6.66656H1.08333V11.9167Z" fill="var(--fill-0, #00008F)"/>
</svg>
