<svg preserveAspectRatio="none" width="100%" height="100%" overflow="visible" style="display: block;" viewBox="0 0 21.625 13.5625" fill="none" xmlns="http://www.w3.org/2000/svg">
<path id="vital_signs" d="M8.00231 13.5625C7.81038 13.5625 7.63813 13.5044 7.48556 13.3881C7.33299 13.2716 7.22114 13.1235 7.15 12.9437L4.90831 7.33335H0V6.25002H5.67504L7.99987 12.1501L12.7332 0.618855C12.804 0.439022 12.915 0.290875 13.0664 0.174417C13.2177 0.0581389 13.3892 0 13.5809 0C13.7729 0 13.9451 0.0581389 14.0977 0.174417C14.2503 0.290875 14.3621 0.439022 14.4332 0.618855L16.7166 6.25002H21.625V7.33335H15.9499L13.5834 1.4124L8.85002 12.9437C8.77924 13.1235 8.6682 13.2716 8.5169 13.3881C8.36559 13.5044 8.19406 13.5625 8.00231 13.5625Z" fill="var(--fill-0, #00008F)"/>
</svg>
