<svg preserveAspectRatio="none" width="100%" height="100%" overflow="visible" style="display: block;" viewBox="0 0 22.75 17.3374" fill="none" xmlns="http://www.w3.org/2000/svg">
<path id="cardiology" d="M6.5 0C7.45279 0 8.34654 0.24375 9.18125 0.73125C10.016 1.21875 10.7472 1.92779 11.375 2.85837C12.0028 1.92779 12.734 1.21875 13.5688 0.73125C14.4035 0.24375 15.2972 0 16.25 0C17.6278 0 18.7847 0.46809 19.7207 1.40427C20.6569 2.34027 21.125 3.49718 21.125 4.875C21.125 4.99308 21.1205 5.10422 21.1115 5.2084C21.1024 5.31258 21.091 5.42371 21.0771 5.54179H19.9937C20.0118 5.42371 20.0243 5.31258 20.0314 5.2084C20.0382 5.10422 20.0417 4.99308 20.0417 4.875C20.0417 3.79167 19.6806 2.88889 18.9583 2.16667C18.2361 1.44444 17.3333 1.08333 16.25 1.08333C15.3875 1.08333 14.5917 1.32952 13.8626 1.8219C13.1333 2.31427 12.4805 3.05554 11.9042 4.04571H10.8458C10.2556 3.04164 9.59933 2.29685 8.8771 1.81133C8.15488 1.326 7.36251 1.08333 6.5 1.08333C5.43057 1.08333 4.53122 1.44444 3.80196 2.16667C3.07288 2.88889 2.70833 3.79167 2.70833 4.875C2.70833 4.99308 2.71176 5.10422 2.71863 5.2084C2.72567 5.31258 2.73822 5.42371 2.75627 5.54179H1.67294C1.65903 5.42371 1.64757 5.31258 1.63854 5.2084C1.62951 5.10422 1.625 4.99308 1.625 4.875C1.625 3.49718 2.09309 2.34027 3.02927 1.40427C3.96527 0.46809 5.12218 0 6.5 0ZM5.5334 11.7915H7.04573C7.62351 12.3652 8.26936 12.9875 8.98327 13.6584C9.69719 14.3292 10.4944 15.0666 11.375 15.8708C12.2556 15.0666 13.0528 14.3292 13.7667 13.6584C14.4806 12.9875 15.1265 12.3652 15.7043 11.7915H17.2228C16.5784 12.4527 15.8458 13.1771 15.025 13.9647C14.2042 14.7521 13.2612 15.6292 12.1959 16.5959L11.375 17.3374L10.5541 16.5959C9.48883 15.6292 8.54687 14.7521 7.72823 13.9647C6.90941 13.1771 6.1778 12.4527 5.5334 11.7915ZM10.3458 12.4583C10.4556 12.4583 10.5476 12.4254 10.6218 12.3595C10.6962 12.2934 10.7556 12.2076 10.8 12.1022L12.6168 6.64571L14.0646 8.82511C14.1549 8.94174 14.2605 9.03473 14.3813 9.10406C14.502 9.17358 14.6388 9.20833 14.7916 9.20833H22.75V8.125H14.8937L12.9001 5.13337C12.8472 5.05411 12.7767 4.99471 12.6885 4.95517C12.6004 4.91563 12.5056 4.89586 12.4042 4.89586C12.2944 4.89586 12.1989 4.92881 12.1176 4.99471C12.0364 5.06079 11.9805 5.14656 11.95 5.252L10.1332 10.7228L8.64988 8.50823C8.5596 8.39159 8.45406 8.29861 8.33327 8.22927C8.21248 8.15976 8.07571 8.125 7.92296 8.125H0V9.20833H7.81463L9.82908 12.2208C9.88199 12.3138 9.95601 12.3766 10.0512 12.4093C10.1461 12.442 10.2444 12.4583 10.3458 12.4583Z" fill="var(--fill-0, #00008F)"/>
</svg>
