<svg preserveAspectRatio="none" width="100%" height="100%" overflow="visible" style="display: block;" viewBox="0 0 24 24" fill="none" xmlns="http://www.w3.org/2000/svg">
<g id="directions_car">
<mask id="mask0_17813_54658" style="mask-type:alpha" maskUnits="userSpaceOnUse" x="0" y="0" width="24" height="24">
<rect id="Bounding box" width="24" height="24" fill="var(--fill-0, #D9D9D9)"/>
</mask>
<g mask="url(#mask0_17813_54658)">
<path id="Vector" d="M16.2855 21.0001L16.7486 20.5369C16.9607 20.3248 17.0664 20.0287 17.0366 19.7303L16.0837 10.2018L20.4991 4.90339C20.8302 4.50607 20.8037 3.92182 20.438 3.5561L20.2295 3.34758C19.8637 2.98187 19.2795 2.95536 18.8822 3.28647L13.5837 7.70184L4.52849 7.22525C4.24539 7.21035 3.96928 7.31631 3.76882 7.51676L3.33263 7.95296C2.78299 8.50259 3.04311 9.44169 3.7972 9.63021L10.0837 11.2018L7.04353 14.6668C6.86596 14.8692 6.61429 14.9914 6.34544 15.0058L3.88924 15.1377C3.79986 15.1425 3.70965 15.1558 3.63103 15.1986C3.56708 15.2334 3.50823 15.2773 3.45642 15.3291C3.05548 15.7301 3.21664 16.4128 3.75456 16.5921L6.24465 17.4159C6.40359 17.4685 6.52567 17.5971 6.56987 17.7586L7.18409 20.0029C7.3677 20.5537 8.06681 20.7188 8.47738 20.3082C8.51322 20.2723 8.5454 20.2332 8.57353 20.1913C8.62736 20.1111 8.64866 20.0149 8.65981 19.9189L8.95622 17.369C8.98389 17.131 9.09611 16.9108 9.27246 16.7486L12.584 13.7018L14.6168 20.5677C14.8263 21.3008 15.7463 21.5392 16.2855 21.0001Z" stroke="var(--stroke-0, #00008F)" stroke-width="1.25" stroke-linecap="round"/>
</g>
</g>
</svg>
